<svg width="554" height="748" viewBox="0 0 554 748" fill="none" xmlns="http://www.w3.org/2000/svg">
<path fill-rule="evenodd" clip-rule="evenodd" d="M305.02 91.4894C303.855 93.2248 302.944 94.822 301.803 96.2259C300.496 97.8314 299.135 99.4621 297.533 100.746C294.015 103.561 290.018 104.131 285.824 102.4C280.491 100.2 276.642 96.4439 274.51 90.9887C274.116 89.9794 273.756 88.9606 273.261 87.6081C272.298 88.6057 271.547 89.3561 270.832 90.1249C268.37 92.7564 265.589 94.9204 262.175 96.1281C261.036 96.5283 259.833 96.8001 258.638 97.001C254.737 97.6483 252.361 95.2985 251.23 92.8704C250.826 91.9953 250.528 91.0701 250.21 90.2377C249.267 89.8937 249.051 90.6395 248.677 91.0391C246.749 93.0907 244.957 95.2796 242.908 97.1928C240.742 99.22 238.172 100.66 235.21 101.209C234.489 101.34 233.762 101.471 233.035 101.504C228.684 101.701 226.216 99.9892 224.357 95.3206C223.973 96.0508 223.581 96.5781 223.409 97.1662C221.634 103.094 220.883 109.149 220.909 115.364C220.961 127.309 224.878 138.049 230.585 148.263C232.018 150.83 233.546 153.369 235.252 155.762C241.743 164.83 250.561 170.834 260.754 174.849C263.667 175.994 266.778 176.795 269.877 177.26C273.842 177.864 277.878 178.21 281.885 178.249C294.196 178.36 305.78 175.473 316.555 169.333C322.446 165.977 327.843 161.963 332.434 156.998C339.362 149.496 345.262 141.248 348.741 131.468C349.11 130.431 349.393 129.364 349.669 128.298C349.712 128.12 349.513 127.875 349.327 127.425C348.696 127.542 347.991 127.602 347.325 127.805C345.251 128.436 343.404 127.893 341.872 126.526C340.511 125.315 339.23 123.965 338.162 122.486C335.423 118.697 333.196 114.603 331.276 110.325C330.794 109.259 330.669 107.928 329.31 107.124C328.72 107.897 328.23 108.79 327.511 109.411C326.504 110.272 325.387 111.063 324.206 111.642C322.16 112.65 320.165 112.265 318.35 110.933C316.549 109.607 315.164 107.879 314.003 105.986C311.493 101.913 309.043 97.7937 306.553 93.7052C306.104 92.9947 305.604 92.3372 305.02 91.4894ZM270.754 143.612C270.733 143.614 270.719 143.615 270.699 143.617C270.807 145.089 270.798 146.577 271.05 148.025C271.482 150.491 274.419 153.185 276.857 153.537C280.602 154.08 284.591 151.525 285.501 147.83C285.843 146.429 285.781 144.925 285.911 143.47C285.978 142.686 286.242 142.028 287.089 141.818C287.874 141.626 288.795 142.232 289.019 143.113C289.145 143.588 289.216 144.081 289.231 144.571C289.466 150.321 286.567 154.48 281.11 156.274C275.986 157.952 270.151 155.172 268.267 150.063C267.035 146.73 267.399 143.272 267.85 139.849C267.944 139.141 268.934 138.436 269.476 138.711C269.967 138.956 270.568 139.472 270.644 139.944C270.822 141.137 270.733 142.386 270.754 143.612ZM302.644 134.426C302.415 131.601 304.125 129.804 307.302 129.526C310.355 129.258 312.695 131.119 312.884 133.968C313.061 136.663 311.068 139.049 308.451 139.286C305.537 139.544 302.877 137.313 302.644 134.426ZM248.934 122.427C248.686 120.382 249.598 118.505 251.185 117.776C253.895 116.544 257.737 118.216 258.732 121.061C259.428 123.066 258.549 125.475 256.734 126.5C253.658 128.251 249.371 126.008 248.934 122.427Z" fill="#FFF7F9"/>
<path fill-rule="evenodd" clip-rule="evenodd" d="M331.178 72.7779C327.85 73.4599 325.308 72.3574 323.028 70.5619C320.719 68.7475 318.505 66.8067 316.228 64.9549C315.281 64.1831 314.328 63.4048 313.293 62.7658C312.376 62.1954 311.386 61.8689 310.219 61.7941C308.417 61.6752 306.612 61.2338 304.858 60.7324C302.827 60.1464 300.991 59.181 300.237 57.2512C296.045 56.4887 292.094 55.7855 288.141 55.0544C285.611 54.5895 283.066 54.4836 280.5 54.4636C268.26 54.3754 257.169 58.1103 247.055 64.8111C238.425 70.5315 231.851 78.2115 227.235 87.5705C226.776 88.5028 226.639 89.39 226.936 90.4065C227.39 91.9376 227.686 93.5084 228.132 95.04C228.818 97.3748 229.965 98.2229 232.337 98.2504C234.334 98.2707 236.287 97.9011 237.921 96.7625C239.812 95.4434 241.695 94.0266 243.29 92.3645C245.583 89.9841 247.673 87.4013 249.205 84.4177C249.479 83.8852 249.866 83.3863 250.294 82.9686C250.754 82.5135 251.967 82.7533 252.24 83.3435C252.496 83.8928 252.692 84.4817 252.799 85.0773C253.111 86.7732 253.273 88.5013 253.673 90.1697C254.423 93.2786 256.342 94.4203 259.398 93.6252C264.391 92.3285 267.976 89.0943 270.812 84.9265C271.564 83.8181 272.118 82.5631 272.783 81.3911C273.023 80.9733 273.284 80.547 273.614 80.2138C274.196 79.6163 275.519 79.9391 275.739 80.7578C275.93 81.4593 275.95 82.2086 276.073 82.9293C276.35 84.6278 276.532 86.3474 276.946 88.0077C278.302 93.4012 281.675 97.1084 286.678 99.2632C289.966 100.682 293.126 100.258 295.936 97.9237C298.825 95.5201 300.75 92.4022 302.353 89.0485C302.72 88.2775 303.007 87.4493 303.454 86.7284C303.969 85.8833 305.389 85.82 306.01 86.602C306.538 87.2714 306.943 88.0413 307.379 88.7808C310.343 93.7322 313.254 98.7227 316.284 103.634C317.176 105.083 318.278 106.447 319.472 107.657C321.005 109.22 322.644 109.204 324.396 107.888C325.819 106.821 326.603 105.289 327.372 103.745C327.863 102.761 328.28 101.72 328.873 100.798C329.541 99.7665 331.059 99.9977 331.519 101.149C331.741 101.715 331.863 102.331 332.025 102.922C333.829 109.686 337.288 115.604 341.189 121.307C341.532 121.808 341.961 122.26 342.384 122.706C344.672 125.09 347.605 125.272 350.205 123.206C351.072 122.517 351.195 121.533 351.233 120.547C351.398 116.353 351.375 112.166 350.619 108.026C349.076 99.5238 345.59 91.8115 340.668 84.8161C337.794 80.707 334.471 76.919 331.178 72.7779Z" fill="#F5C2E1"/>
<path fill-rule="evenodd" clip-rule="evenodd" d="M288.758 181.359C280.537 181.668 272.633 181.468 264.793 179.594C262.869 182.628 261.731 185.877 260.326 188.984C253.08 205.015 246.792 221.402 242.373 238.451C243.571 240.846 245.807 241.663 247.987 242.385C254.286 244.479 260.725 245.657 267.423 245.237C273.754 244.837 280.143 244.848 286.311 243.183C292.078 241.632 297.785 239.848 303.475 238.008C305.07 237.49 306.541 236.504 307.999 235.624C309.11 234.952 309.266 234.238 308.74 233.141C308.477 232.585 308.147 232.069 307.837 231.538C303.316 223.748 299.911 215.44 296.884 206.978C294.233 199.568 291.71 192.107 289.84 184.443C289.597 183.507 289.198 182.611 288.758 181.359Z" fill="#FF92CD"/>
<path fill-rule="evenodd" clip-rule="evenodd" d="M319.404 250.27C318.206 247.679 313.943 241.126 311.222 237.686C310.766 237.902 310.224 238.097 309.745 238.392C307.041 240.094 304.135 241.32 301.108 242.31C293.683 244.748 286.227 247.048 278.411 247.762C272.224 248.326 266.009 248.787 259.805 248.272C253.945 247.788 248.296 246.305 242.986 243.675C242.467 243.419 241.894 243.279 241.195 243.036C239.672 247.373 239.37 251.585 239.979 255.897C240.168 257.244 240.899 258.207 242.082 258.702C243.423 259.262 244.817 259.776 246.236 260.078C252.098 261.341 258.029 261.925 264.022 261.663C268.65 261.46 273.272 261.159 277.895 260.886C287.197 260.336 296.21 258.229 305.09 255.535C309.278 254.263 313.383 252.703 317.515 251.238C318.181 251.021 318.783 250.604 319.404 250.27Z" fill="#FFDBEE"/>
<path fill-rule="evenodd" clip-rule="evenodd" d="M305.768 45.9857C308.138 46.6379 310.578 47.3058 313.21 48.0227C319.457 43.3632 325.21 38.1298 329.005 31.0419C331.749 25.9195 332.108 20.49 330.38 14.9557C330.018 13.8108 329.395 12.7132 328.723 11.7036C328.019 10.6401 326.783 10.5565 325.9 11.5061C324.992 12.4856 324.119 13.5539 323.481 14.7168C322.482 16.5381 321.694 18.4841 320.825 20.373C320.465 21.1505 320.23 22.0169 319.73 22.6856C319.426 23.087 318.672 23.4306 318.2 23.3463C317.728 23.2621 317.192 22.6774 316.982 22.1808C316.704 21.5208 316.757 20.7309 316.607 20.0123C316.051 17.3662 315.515 14.7185 314.891 12.0914C314.549 10.6503 313.923 9.31449 312.648 8.04783C312.28 8.52422 311.806 8.89613 311.661 9.37006C311.203 10.8986 310.873 12.4598 310.493 14.0036C310.348 14.5897 310.299 15.2389 310.017 15.751C309.808 16.1313 309.272 16.5921 308.916 16.5694C308.385 16.5386 307.606 16.2456 307.402 15.8258C306.806 14.628 306.486 13.2975 305.984 12.0437C305.728 11.4101 305.312 10.8516 304.866 10.0847C303.709 12.1212 303.703 14.1214 303.49 16.0388C303.272 17.9916 303.196 19.976 303.256 21.9362C303.512 29.9514 304.119 37.9196 305.768 45.9857Z" fill="#F5C2E1"/>
<path fill-rule="evenodd" clip-rule="evenodd" d="M365.57 188.781C365.055 186.981 363.833 186.342 362.723 185.603C362.116 185.199 361.434 184.899 360.865 184.45C360.046 183.795 360.201 182.415 361.156 181.98C361.923 181.635 362.772 181.46 363.572 181.183C364.488 180.869 365.418 180.569 366.299 180.173C367.026 179.846 367.426 179.234 367.211 178.387C367.014 177.608 366.521 177.049 365.735 176.939C365.145 176.856 364.53 177 363.932 177.002C363.168 177.003 362.479 176.808 362.156 176.004C361.858 175.262 362.198 174.5 363.102 173.843C363.399 173.632 363.751 173.493 364.048 173.282C366.665 171.439 367.043 170.246 366.143 166.516C364.665 166.17 363.344 166.928 362.064 167.472C360.048 168.33 358.135 169.433 356.153 170.366C355.219 170.807 354.601 171.478 354.074 172.345C353.671 173.006 353.016 173.364 352.2 173.136C351.397 172.908 350.994 172.244 350.919 171.505C350.847 170.809 351.085 170.083 351.095 169.366C351.106 168.278 351.149 167.166 350.966 166.092C350.795 165.087 350.074 164.369 349.164 163.896C348.065 163.325 346.917 163.691 346.447 164.848C346.169 165.522 345.923 166.242 345.844 166.963C345.567 169.524 345.353 172.094 345.159 174.662C345.097 175.516 345.28 176.4 345.14 177.239C344.366 181.934 345.539 186.254 347.601 190.388C349.714 194.638 353.125 196.497 358.071 196.172C358.96 194.752 358.26 193.351 357.908 191.967C357.731 191.264 357.322 190.614 357.152 189.911C356.895 188.87 357.914 187.897 358.904 188.223C359.589 188.453 360.217 188.869 360.896 189.128C362.42 189.716 363.93 189.738 365.57 188.781Z" fill="#FFF7F9"/>
<path fill-rule="evenodd" clip-rule="evenodd" d="M342.239 150.433C343.484 150.733 344.19 151.067 344.89 151.043C350.25 150.856 355.381 149.745 359.34 145.817C363.609 141.584 365.474 136.415 364.014 130.349C363.275 127.295 361.158 125.551 358.19 124.887C355.83 124.36 354.117 125.357 353.332 127.633C352.81 129.145 352.41 130.691 351.888 132.203C350.017 137.576 347.366 142.544 344.238 147.267C343.643 148.167 343.085 149.086 342.239 150.433Z" fill="#FFF7F9"/>
<path fill-rule="evenodd" clip-rule="evenodd" d="M203.594 143.347C202.331 143.567 202.06 144.422 202.04 145.28C202.009 146.748 202.11 148.222 202.232 149.686C202.404 151.75 202.185 152.644 201.254 152.832C199.863 153.111 199.406 152.001 198.776 151.093C198.155 150.199 197.492 149.315 196.707 148.566C196.199 148.085 195.377 147.683 194.74 148.284C194.363 148.642 194.063 149.38 194.141 149.879C194.333 151.072 194.745 152.234 195.129 153.385C195.317 153.96 195.82 154.47 195.869 155.035C195.914 155.558 195.699 156.317 195.317 156.605C194.949 156.892 194.084 156.949 193.697 156.698C192.581 155.98 191.634 154.921 190.145 155.095C189.587 155.157 189.055 155.386 188.611 155.503C188.357 156.49 188.88 156.887 189.356 157.216C189.847 157.559 190.451 157.738 190.974 158.043C192.492 158.934 192.556 160.27 191.119 161.155C190.501 161.538 189.797 161.793 189.209 162.209C188.733 162.546 188.365 163.029 187.744 163.658C188.34 164.105 188.736 164.567 189.236 164.754C191.788 165.715 194.449 165.883 197.148 165.718C198.594 165.631 200.039 165.531 201.489 165.578C204.45 165.674 207.04 164.97 208.891 162.447C210.698 159.983 212.563 157.564 214.304 155.056C215.071 153.954 215.595 152.659 215.428 151.247C215.375 150.809 215.092 150.17 214.764 150.054C214.271 149.88 213.421 149.852 213.124 150.155C212.116 151.191 211.251 152.378 210.392 153.557C209.755 154.439 209.316 155.651 207.923 155.242C206.779 154.906 206.787 153.783 206.674 152.809C206.371 150.116 205.953 147.445 204.763 144.979C204.455 144.371 203.957 143.846 203.594 143.347Z" fill="#FFF7F9"/>
<path fill-rule="evenodd" clip-rule="evenodd" d="M218.125 124.404C218.037 122.544 218.01 121.325 217.921 120.118C217.401 113.322 217.803 106.598 219.317 99.9534C219.395 99.5968 219.479 99.2326 219.592 98.8804C220.441 96.2423 218.982 94.3648 217.008 92.9396C215.378 91.7624 212.468 91.6977 210.567 93.4526C208.211 95.6272 206.754 98.2192 206.696 101.493C206.551 108.977 209.311 115.41 213.788 121.196C214.38 121.959 215.182 122.566 215.943 123.177C216.38 123.544 216.945 123.755 218.125 124.404Z" fill="#FFF7F9"/>
<path fill-rule="evenodd" clip-rule="evenodd" d="M199.296 263.197C198.578 265.054 198.762 266.808 199.433 268.365C201.911 274.181 205.715 278.838 211.45 281.683C211.659 281.786 211.922 281.767 212.281 281.831C213.142 280.778 213.498 279.573 213.015 278.198C211.307 273.399 208.972 268.97 205.075 265.603C203.903 264.588 202.427 263.905 201.021 263.209C200.566 262.977 199.886 263.188 199.296 263.197Z" fill="#FF92CD"/>
<path fill-rule="evenodd" clip-rule="evenodd" d="M306.105 301.4C305.519 302.791 304.838 304.21 304.307 305.688C303.362 308.34 302.496 311.022 301.615 313.697C301.15 315.121 300.992 316.571 301.379 318.051C301.65 319.083 302.62 319.608 303.632 319.287C304.848 318.902 305.748 318.092 306.488 317.104C309.008 313.745 310.099 309.959 309.928 305.741C309.824 303.293 308.798 301.811 306.105 301.4Z" fill="#FF92CD"/>
<path fill-rule="evenodd" clip-rule="evenodd" d="M301.097 53.5669C302.591 51.8493 302.825 50.218 302.658 48.4201C302.418 45.8206 301.736 43.3522 300.923 40.8935C299.477 36.5382 297.448 32.4787 294.691 28.838C293.598 27.3895 292.27 26.0567 290.827 24.9639C289.039 23.616 287.433 24.093 286.206 26.0294C284.78 28.2754 284.28 30.8385 284.192 33.4202C284.021 38.4709 284.398 43.509 285.114 48.515C285.317 49.9594 285.85 51.0636 287.41 51.4811C291.891 52.6783 296.387 53.6919 301.097 53.5669Z" fill="#FFD152"/>
<path fill-rule="evenodd" clip-rule="evenodd" d="M314.62 59.4618C317.825 62.1288 320.99 64.8059 324.207 67.4231C325.056 68.1108 325.998 68.7216 326.979 69.2031C328.789 70.1002 330.239 69.6769 331.445 68.0297C331.736 67.6362 331.954 67.1921 332.186 66.7608C334.911 61.6539 337.147 56.3307 338.875 50.8066C339.414 49.0685 340.02 47.2834 339.124 45.4975C337.901 44.7392 336.67 45.1112 335.484 45.2413C332.021 45.6105 320.377 48.8111 316.903 50.3389C316.579 51.6962 316.22 53.2384 315.832 54.7758C315.457 56.2982 315.049 57.8301 314.62 59.4618Z" fill="#FFD152"/>
<path fill-rule="evenodd" clip-rule="evenodd" d="M303.907 56.628C305.778 57.8645 307.428 58.2754 309.13 58.4578C310.706 58.6215 311.489 58.2056 311.981 56.7727C312.417 55.5124 312.638 54.1769 312.944 52.9403C311.44 50.8276 309.417 50.1707 307.109 49.7877C305.44 51.7569 305.266 54.3099 303.907 56.628Z" fill="#FFD152"/>
<path fill-rule="evenodd" clip-rule="evenodd" d="M320.247 135.8C326.785 135.764 331.773 141.681 331.194 148.081C330.932 150.95 329.563 153.318 327.577 154.946C325.9 156.628 323.62 157.758 321.366 158.115C316.151 158.937 311.382 153.726 310.32 149.02C308.886 142.657 313.521 135.836 320.247 135.8Z" fill="#F8CFDD"/>
<path fill-rule="evenodd" clip-rule="evenodd" d="M226.208 129.684C226.24 128.608 226.453 127.624 226.803 126.714C227.702 121.827 232.035 118.46 237.036 118.685C242.594 118.939 248.215 122.494 248.328 128.667C248.458 135.351 242.068 140.148 235.793 139.512C231.186 139.061 226.067 134.669 226.208 129.684Z" fill="#F8CFDD"/>
<path fill-rule="evenodd" clip-rule="evenodd" d="M293.032 183.615C295.204 184.219 296.407 185.449 297.691 186.553C301.415 189.751 305.284 192.72 309.614 195.079C313.025 196.939 316.61 197.95 320.463 197.988C328.261 198.063 335.791 196.957 342.615 192.782C343.121 192.478 343.675 192.262 344.3 191.963C344.976 192.832 345.528 193.626 346.171 194.343C348.891 197.383 352.14 199.409 356.315 199.563C356.922 199.588 357.542 199.605 358.14 199.526C360.466 199.199 361.616 198.013 361.848 195.687C361.919 194.959 361.85 194.213 361.851 193.273C362.513 193.119 363.19 192.956 363.866 192.801C364.461 192.666 365.066 192.572 365.643 192.389C369.278 191.249 370.049 189.164 368.003 186.011C367.603 185.395 367.111 184.849 366.55 184.119C367.149 183.675 367.699 183.213 368.297 182.839C370.708 181.313 370.995 179.643 370.074 176.764C369.785 175.859 369.116 175.074 368.528 174.079C368.83 173.278 369.224 172.385 369.503 171.459C370.051 169.651 369.984 167.803 369.572 165.981C369.12 164.001 367.913 163.08 365.893 163.124C363.894 163.167 362.079 163.905 360.305 164.731C358.644 165.493 357.015 166.308 355.471 167.054C354.165 166.589 354.294 165.422 353.912 164.58C353.006 162.563 351.615 161.13 349.444 160.54C346.898 159.851 344.799 160.708 343.7 163.148C343.15 164.36 342.714 165.705 342.588 167.026C342.235 170.82 341.925 174.625 341.878 178.432C341.838 181.852 342.174 185.272 342.357 188.984C338.976 191.599 334.957 193.272 330.569 193.906C327.315 194.372 324.02 194.56 320.731 194.726C317.76 194.876 314.945 194.123 312.248 192.807C307.922 190.7 304.154 187.766 300.456 184.742C298.954 183.513 297.593 182.119 295.982 180.631C297.299 179.727 298.942 179.851 300.356 179.325C301.838 178.78 303.406 178.461 304.913 177.963C306.535 177.429 308.139 176.84 309.717 176.19C311.182 175.59 312.627 174.929 314.056 174.227C315.479 173.532 316.891 172.789 318.272 172.006C319.653 171.223 321.018 170.406 322.344 169.536C323.67 168.666 324.971 167.741 326.235 166.778C327.506 165.814 328.746 164.824 329.948 163.773C331.241 162.646 332.49 161.473 333.722 160.273C334.863 159.157 335.975 158.015 337.035 156.835C338.095 155.662 339.081 154.417 340.039 153.273C347.998 155.441 355.018 153.644 361.033 148.574C366.236 144.189 368.335 138.238 367.545 131.385C366.842 125.325 362.404 121.507 356.298 121.56C355.826 121.567 355.359 121.552 354.629 121.55C354.58 120.88 354.468 120.306 354.502 119.735C355.218 109.353 352.62 99.7435 347.934 90.583C344.711 84.2892 340.553 78.6962 335.832 73.4956C335.174 72.7725 334.53 72.0484 333.735 71.1671C334.123 70.2963 334.453 69.4018 334.892 68.5624C337.409 63.7659 339.597 58.8255 341.31 53.6817C341.851 52.0559 342.305 50.3873 342.647 48.7061C342.841 47.7585 342.856 46.7329 342.73 45.774C342.41 43.3208 341.12 42.041 338.643 41.8245C337.447 41.7167 336.186 41.775 335.008 42.0166C331.551 42.7358 328.117 43.5866 324.665 44.3756C324.207 44.4797 323.73 44.522 322.775 44.663C323.46 43.7772 323.865 43.235 324.285 42.7057C326.408 40.0154 328.751 37.4632 330.626 34.6089C334.945 28.037 335.689 20.874 333.222 13.4226C332.731 11.9434 331.893 10.4828 330.908 9.27873C328.923 6.87166 326.109 6.78545 323.872 8.97197C322.834 9.98904 321.98 11.2171 321.1 12.3909C320.593 13.06 320.19 13.8126 319.568 14.8129C319.157 14.2329 318.821 13.914 318.688 13.5309C318.24 12.259 317.987 10.9024 317.425 9.68109C316.819 8.35066 316.109 7.01396 315.179 5.90403C313.243 3.58461 311.185 3.77211 309.52 6.26711C309.119 6.86515 308.807 7.53382 308.328 8.39026C307.785 7.81301 307.419 7.37003 307.002 7.00092C305.063 5.2992 303.089 5.68397 302.005 8.04471C301.495 9.14899 301.056 10.3533 300.908 11.5501C300.529 14.7216 300.187 17.9045 300.102 21.0964C300.034 23.6695 300.364 26.2623 300.506 28.841C300.533 29.4003 300.505 29.9637 300.502 31.241C299.556 30.0129 299.064 29.3688 298.565 28.7321C297.36 27.1865 296.22 25.5729 294.911 24.1332C294.101 23.2389 293.086 22.4722 292.041 21.876C289.094 20.1787 285.969 20.8803 283.96 23.6253C281.934 26.4066 281.213 29.6386 281.057 33.0041C280.792 38.5529 281.081 44.0817 282.103 49.5562C282.17 49.9091 282.114 50.2781 282.122 50.8529C281.428 50.9675 280.742 51.1797 280.06 51.174C267.05 51.1133 255.344 55.3555 244.666 62.5106C237.26 67.4727 231.303 73.9904 226.786 81.7487C225.244 84.396 224.013 87.2237 222.63 89.9644C222.254 90.708 221.848 91.4326 221.389 92.2736C220.657 91.6753 220.121 91.2027 219.547 90.7681C215.89 88.0218 211.572 88.1943 208.184 91.266C205.539 93.6652 203.98 96.6576 203.583 100.237C203.282 102.954 203.438 105.63 204.128 108.294C205.119 112.129 206.475 115.811 208.504 119.211C211.511 124.265 213.471 125.958 219.005 128.235C219.323 129.25 219.7 130.408 220.057 131.575C223.357 142.402 228.337 152.348 235.469 161.138C236.7 162.654 238.039 164.133 239.516 165.399C245.124 170.197 251.121 174.419 257.994 177.222C258.667 177.495 259.312 177.847 259.962 178.177C260.056 178.227 260.095 178.378 260.307 178.713C260.021 179.078 259.731 179.57 259.327 179.944C255.808 183.214 252.024 186.112 247.574 187.978C241.276 190.62 234.877 191.227 228.303 188.894C223.906 187.332 220.298 184.673 217.43 181.04C214.923 177.865 212.606 174.528 210.257 171.229C209.405 170.036 208.609 168.769 208.637 167.069C212.158 164.1 214.982 160.445 217.296 156.373C218.422 154.388 218.983 152.283 218.494 149.99C217.972 147.531 215.635 145.9 213.338 146.421C212.757 146.556 212.186 146.836 211.674 147.141C211.048 147.517 210.485 147.987 209.72 148.549C209.389 147.83 209.099 147.198 208.816 146.567C208.067 144.889 207.517 143.078 206.522 141.566C204.817 138.983 201.956 139.027 200.171 141.594C199.423 142.667 199.02 143.988 198.409 145.317C197.622 145.116 196.822 144.824 195.994 144.717C193.536 144.38 191.704 145.645 191.122 148.116C190.873 149.18 190.802 150.287 190.64 151.485C189.709 151.687 188.738 151.808 187.83 152.121C185.335 152.979 184.45 154.932 185.443 157.378C185.758 158.161 186.275 158.86 186.721 159.627C186.143 160.455 185.474 161.193 185.051 162.052C184.174 163.836 184.744 165.808 186.409 166.898C187.117 167.358 187.914 167.797 188.718 167.962C190.863 168.393 193.069 169.078 195.191 168.921C198.793 168.654 202.191 169.588 205.354 169.866C208.543 174.282 211.455 178.529 214.592 182.612C219.297 188.733 225.502 192.392 233.155 193.327C238.212 193.941 243.169 193.293 247.853 191.298C250.421 190.202 252.812 188.692 255.27 187.338C255.992 186.941 256.665 186.463 257.343 186.041C258.098 186.946 257.45 187.577 257.202 188.184C254.887 193.745 252.493 199.269 250.184 204.828C245.138 217.004 241.439 229.635 237.952 242.327C236.846 246.366 236.267 250.493 236.566 254.744C236.856 258.876 238.962 261.323 242.771 262.444C244.483 262.949 246.219 263.403 248.043 263.906C241.016 272.784 226.622 280.544 217.082 279.938C216.785 279.118 216.441 278.218 216.138 277.314C214.385 272.104 211.807 267.397 207.781 263.612C206.721 262.617 205.46 261.826 204.253 261.003C203.755 260.661 203.167 260.424 202.597 260.228C199.01 259.006 195.798 259.939 195.706 264.92C195.672 266.817 196.068 268.598 196.832 270.296C199.311 275.824 203.066 280.289 208.163 283.518C209.381 284.291 210.817 284.725 212.187 285.213C213.437 285.667 214.653 285.472 215.497 284.371C216.099 283.583 216.82 283.459 217.718 283.393C225.56 282.833 232.693 280.206 239.24 275.855C244.051 272.657 248.398 268.911 252.3 264.517C265.742 265.339 279.075 264.323 292.399 262.312C293.652 263.187 294.276 264.488 294.708 265.923C295.761 269.458 296.773 273.004 297.893 276.513C299.77 282.367 301.729 288.2 303.64 294.043C303.908 294.859 304.116 295.692 304.39 296.675C303.616 297.68 302.843 298.698 302.819 300.174C302.807 301.227 302.188 302.269 301.827 303.313C300.792 306.337 299.735 309.355 298.713 312.378C298.075 314.278 297.912 316.226 298.253 318.208C298.931 322.122 302.099 323.803 305.583 321.931C306.84 321.263 308.068 320.288 308.937 319.157C312.478 314.565 313.873 309.354 312.861 303.542C312.548 301.74 311.794 300.189 310.144 299.399C308.631 298.67 308.121 297.409 307.647 295.971C304.843 287.443 301.768 279.005 299.446 270.315C298.659 267.37 297.592 264.495 296.593 261.412C297.215 261.169 297.739 260.92 298.29 260.76C302.624 259.491 306.996 258.353 311.286 256.955C314.647 255.864 317.909 254.472 321.199 253.183C321.76 252.966 322.3 252.659 322.796 252.313C323.556 251.78 323.837 250.875 323.427 250.028C323.001 249.148 322.454 248.332 321.914 247.509C319.297 243.5 316.66 239.499 314.036 235.491C307.872 226.075 303.405 215.825 299.726 205.221C297.468 198.723 295.548 192.101 293.479 185.532C293.316 185.109 293.246 184.63 293.032 183.615ZM305.029 91.4808C305.612 92.3287 306.12 92.9858 306.547 93.6978C309.038 97.7865 311.489 101.899 314 105.979C315.168 107.872 316.547 109.601 318.347 110.927C320.163 112.266 322.158 112.644 324.204 111.637C325.384 111.051 326.501 110.267 327.508 109.406C328.227 108.792 328.717 107.892 329.307 107.119C330.666 107.923 330.792 109.254 331.273 110.32C333.201 114.591 335.421 118.693 338.161 122.482C339.229 123.961 340.517 125.311 341.871 126.523C343.404 127.89 345.251 128.433 347.325 127.803C347.991 127.599 348.696 127.54 349.327 127.423C349.513 127.872 349.718 128.116 349.669 128.295C349.393 129.361 349.118 130.434 348.742 131.466C345.263 141.245 339.365 149.491 332.438 156.993C327.847 161.957 322.45 165.971 316.559 169.326C305.785 175.464 294.202 178.35 281.89 178.237C277.883 178.197 273.847 177.851 269.882 177.246C266.789 176.774 263.672 175.98 260.758 174.835C250.564 170.818 241.753 164.812 235.253 155.744C233.541 153.359 232.019 150.819 230.585 148.245C224.877 138.031 220.958 127.291 220.905 115.345C220.879 109.137 221.629 103.083 223.402 97.1484C223.574 96.5603 223.967 96.04 224.351 95.3029C226.21 99.9716 228.685 101.683 233.029 101.487C233.757 101.454 234.484 101.323 235.204 101.193C238.174 100.643 240.744 99.2038 242.902 97.1774C244.951 95.2645 246.743 93.0758 248.67 91.0245C249.044 90.625 249.26 89.8792 250.203 90.2234C250.522 91.0558 250.819 91.981 251.224 92.8562C252.355 95.2844 254.732 97.6343 258.633 96.9875C259.827 96.7868 261.024 96.5227 262.169 96.1151C265.583 94.9079 268.364 92.7443 270.826 90.1131C271.548 89.3439 272.292 88.5941 273.254 87.5967C273.749 88.9423 274.11 89.9681 274.504 90.9773C276.637 96.4327 280.487 100.196 285.82 102.39C290.014 104.121 294.004 103.552 297.529 100.737C299.131 99.4536 300.492 97.8302 301.798 96.2178C302.952 94.8062 303.864 93.216 305.029 91.4808ZM331.184 72.7734C334.478 76.9079 337.801 80.6963 340.689 84.7976C345.618 91.793 349.098 99.4991 350.643 108.008C351.392 112.149 351.423 116.342 351.259 120.53C351.22 121.515 351.091 122.5 350.231 123.188C347.631 125.254 344.705 125.071 342.409 122.687C341.988 122.248 341.558 121.795 341.215 121.288C337.319 115.584 333.853 109.666 332.048 102.902C331.886 102.311 331.771 101.695 331.542 101.129C331.082 99.9777 329.556 99.7469 328.895 100.778C328.303 101.699 327.886 102.74 327.395 103.724C326.626 105.269 325.836 106.801 324.42 107.867C322.667 109.182 321.028 109.199 319.495 107.635C318.301 106.426 317.199 105.062 316.307 103.612C313.283 98.7 310.364 93.7098 307.4 88.7581C306.956 88.0191 306.559 87.2486 306.03 86.5791C305.409 85.7971 303.996 85.8597 303.474 86.7053C303.027 87.4261 302.747 88.2537 302.373 89.0252C300.771 92.3785 298.847 95.5032 295.958 97.8994C293.147 100.234 289.988 100.65 286.7 99.2377C281.696 97.0824 278.316 93.3753 276.967 87.9812C276.545 86.3214 276.37 84.5943 276.092 82.9028C275.976 82.1816 275.949 81.4328 275.758 80.7313C275.539 79.9196 274.215 79.5966 273.633 80.187C273.304 80.5272 273.042 80.9465 272.802 81.3642C272.138 82.5361 271.584 83.7911 270.831 84.8993C267.99 89.0742 264.404 92.3009 259.418 93.5964C256.363 94.3911 254.444 93.2492 253.693 90.1402C253.293 88.4719 253.13 86.7368 252.818 85.0478C252.705 84.4528 252.515 83.8634 252.259 83.314C251.986 82.7237 250.773 82.4838 250.313 82.9389C249.885 83.3565 249.498 83.8553 249.224 84.3878C247.692 87.3711 245.603 89.9607 243.31 92.3338C241.715 93.9886 239.831 95.4051 237.941 96.731C236.308 97.8694 234.354 98.2387 232.358 98.2181C229.985 98.1904 228.845 97.3416 228.152 95.0073C227.699 93.4762 227.402 91.9053 226.956 90.3737C226.659 89.3572 226.795 88.4701 227.254 87.5379C231.862 78.1801 238.435 70.5011 247.071 64.7813C257.178 58.0824 268.275 54.3485 280.516 54.4381C283.089 54.458 285.627 54.5647 288.157 55.0299C292.103 55.762 296.062 56.4651 300.254 57.2281C301.008 59.158 302.845 60.1306 304.876 60.7099C306.623 61.212 308.428 61.6536 310.237 61.7722C311.403 61.8472 312.393 62.1738 313.311 62.7443C314.345 63.3834 315.299 64.1618 316.246 64.9337C318.524 66.7928 320.738 68.7268 323.047 70.5414C325.314 72.3522 327.856 73.455 331.184 72.7734ZM288.778 181.348C289.218 182.599 289.618 183.496 289.847 184.44C291.718 192.104 294.242 199.565 296.894 206.975C299.922 215.437 303.335 223.738 307.85 231.536C308.161 232.067 308.491 232.59 308.754 233.139C309.28 234.236 309.124 234.95 308.012 235.621C306.548 236.502 305.084 237.487 303.489 238.005C297.799 239.837 292.091 241.621 286.325 243.178C280.157 244.842 273.768 244.831 267.437 245.23C260.739 245.649 254.306 244.469 248 242.375C245.82 241.653 243.585 240.843 242.386 238.441C246.803 221.393 253.089 205.006 260.333 188.977C261.738 185.87 262.875 182.621 264.799 179.587C272.659 181.454 280.557 181.655 288.778 181.348ZM319.434 250.261C318.812 250.595 318.21 251.011 317.546 251.25C313.414 252.714 309.309 254.274 305.121 255.545C296.241 258.238 287.228 260.344 277.926 260.893C273.303 261.165 268.682 261.465 264.053 261.668C258.06 261.929 252.122 261.345 246.267 260.08C244.847 259.772 243.461 259.264 242.113 258.704C240.922 258.21 240.198 257.246 240.009 255.899C239.399 251.587 239.7 247.368 241.223 243.039C241.922 243.282 242.496 243.422 243.015 243.678C248.332 246.308 253.974 247.792 259.835 248.277C266.038 248.786 272.253 248.332 278.44 247.769C286.256 247.056 293.712 244.757 301.137 242.319C304.164 241.323 307.07 240.105 309.774 238.403C310.252 238.101 310.794 237.906 311.251 237.697C313.978 241.116 318.235 247.67 319.434 250.261ZM305.772 45.9786C304.121 37.9124 303.513 29.9443 303.244 21.9442C303.176 19.9846 303.259 17.9997 303.477 16.047C303.69 14.1296 303.696 12.1295 304.853 10.0931C305.298 10.86 305.715 11.4255 305.97 12.0522C306.472 13.2991 306.799 14.6291 307.389 15.8344C307.593 16.2543 308.373 16.5474 308.903 16.5782C309.266 16.6005 309.795 16.1403 310.004 15.76C310.286 15.2479 310.335 14.5987 310.48 14.0126C310.859 12.4619 311.189 10.9008 311.647 9.37934C311.786 8.90595 312.266 8.53359 312.634 8.05726C313.916 9.32354 314.536 10.6599 314.878 12.101C315.503 14.7281 316.038 17.3759 316.594 20.022C316.745 20.7407 316.699 21.5299 316.97 22.1905C317.18 22.6871 317.717 23.2719 318.189 23.3562C318.66 23.4405 319.414 23.097 319.718 22.6956C320.218 22.034 320.453 21.1606 320.813 20.3832C321.688 18.487 322.476 16.5481 323.468 14.7275C324.105 13.5576 324.986 12.496 325.887 11.5171C326.769 10.5606 328.006 10.6514 328.71 11.7149C329.382 12.7247 330.012 13.8217 330.368 14.9672C332.096 20.5016 331.738 25.931 328.994 31.053C325.206 38.1328 319.454 43.3723 313.201 48.0315C310.582 47.2993 308.148 46.6305 305.772 45.9786ZM365.593 188.779C363.96 189.735 362.444 189.721 360.906 189.126C360.226 188.867 359.604 188.443 358.914 188.221C357.923 187.894 356.911 188.867 357.161 189.908C357.331 190.612 357.74 191.262 357.917 191.964C358.269 193.349 358.971 194.756 358.081 196.169C353.135 196.494 349.731 194.634 347.611 190.384C345.547 186.25 344.374 181.93 345.148 177.235C345.287 176.397 345.097 175.513 345.166 174.659C345.36 172.09 345.58 169.52 345.851 166.96C345.929 166.238 346.175 165.518 346.452 164.845C346.923 163.688 348.071 163.322 349.17 163.893C350.08 164.366 350.801 165.091 350.972 166.089C351.155 167.156 351.112 168.268 351.102 169.363C351.092 170.08 350.854 170.806 350.926 171.502C351.001 172.241 351.405 172.912 352.207 173.134C353.023 173.361 353.678 173.004 354.081 172.342C354.608 171.475 355.226 170.805 356.16 170.364C358.148 169.424 360.055 168.328 362.07 167.47C363.358 166.926 364.678 166.168 366.15 166.516C367.057 170.244 366.672 171.438 364.055 173.28C363.758 173.492 363.407 173.63 363.11 173.842C362.199 174.499 361.866 175.267 362.163 176.003C362.487 176.807 363.182 177.001 363.94 177.001C364.545 177.005 365.16 176.854 365.743 176.937C366.536 177.047 367.029 177.607 367.219 178.386C367.427 179.233 367.027 179.845 366.308 180.172C365.426 180.567 364.496 180.868 363.581 181.181C362.781 181.458 361.931 181.626 361.165 181.978C360.209 182.406 360.047 183.794 360.874 184.448C361.442 184.897 362.125 185.197 362.731 185.602C363.856 186.339 365.071 186.972 365.593 188.779ZM301.103 53.5587C296.392 53.6831 291.897 52.6689 287.415 51.4712C285.855 51.0535 285.329 49.9487 285.118 48.5049C284.402 43.4989 284.024 38.4608 284.194 33.4102C284.282 30.8286 284.775 28.2661 286.208 26.0198C287.435 24.0906 289.04 23.6068 290.829 24.9549C292.271 26.0409 293.6 27.3808 294.694 28.8295C297.451 32.4774 299.48 36.5301 300.927 40.8855C301.741 43.3442 302.423 45.8127 302.663 48.4121C302.83 50.21 302.596 51.8412 301.103 53.5587ZM314.626 59.4544C315.054 57.8158 315.463 56.2909 315.851 54.7606C316.238 53.2234 316.591 51.6817 316.922 50.324C320.389 48.7971 332.033 45.598 335.502 45.2288C336.688 45.1058 337.919 44.727 339.142 45.4854C340.038 47.2644 339.433 49.0564 338.894 50.7944C337.167 56.3251 334.931 61.641 332.207 66.7475C331.975 67.1787 331.757 67.6228 331.466 68.0162C330.254 69.6708 328.804 70.0869 327 69.1891C326.019 68.7074 325.078 68.1035 324.227 67.4087C321.004 64.7987 317.832 62.1218 314.626 59.4544ZM342.256 150.428C343.102 149.081 343.66 148.163 344.254 147.263C347.382 142.54 350.04 137.572 351.903 132.2C352.425 130.695 352.825 129.142 353.346 127.63C354.131 125.355 355.844 124.358 358.204 124.885C361.172 125.549 363.289 127.294 364.028 130.347C365.489 136.407 363.625 141.576 359.356 145.814C355.398 149.735 350.267 150.852 344.907 151.039C344.207 151.062 343.501 150.729 342.256 150.428ZM203.607 143.325C203.971 143.831 204.476 144.355 204.772 144.979C205.961 147.445 206.38 150.115 206.683 152.808C206.79 153.79 206.782 154.906 207.933 155.242C209.325 155.651 209.764 154.44 210.401 153.557C211.253 152.379 212.125 151.191 213.133 150.155C213.43 149.846 214.287 149.873 214.773 150.055C215.102 150.178 215.392 150.816 215.438 151.248C215.604 152.653 215.087 153.947 214.314 155.057C212.566 157.565 210.708 159.983 208.901 162.446C207.043 164.97 204.461 165.673 201.5 165.577C200.057 165.529 198.605 165.63 197.158 165.716C194.46 165.881 191.799 165.713 189.247 164.751C188.746 164.564 188.351 164.102 187.755 163.655C188.376 163.027 188.743 162.536 189.219 162.206C189.814 161.79 190.511 161.535 191.129 161.153C192.566 160.267 192.495 158.932 190.984 158.041C190.461 157.736 189.857 157.556 189.366 157.214C188.89 156.884 188.367 156.488 188.621 155.501C189.064 155.377 189.596 155.155 190.155 155.092C191.643 154.919 192.583 155.979 193.707 156.696C194.094 156.948 194.958 156.891 195.326 156.604C195.701 156.309 195.924 155.556 195.878 155.033C195.83 154.468 195.326 153.958 195.138 153.383C194.754 152.233 194.342 151.07 194.15 149.878C194.071 149.378 194.372 148.64 194.748 148.283C195.385 147.674 196.207 148.076 196.715 148.565C197.493 149.307 198.156 150.198 198.785 151.092C199.415 151.993 199.872 153.109 201.263 152.831C202.194 152.643 202.414 151.749 202.241 149.685C202.119 148.221 202.017 146.748 202.048 145.279C202.067 144.4 202.345 143.545 203.607 143.325ZM218.137 124.384C216.957 123.742 216.392 123.524 215.941 123.165C215.18 122.554 214.378 121.947 213.787 121.184C209.302 115.405 206.547 108.964 206.691 101.481C206.756 98.2061 208.205 95.6078 210.562 93.4405C212.462 91.6859 215.379 91.7505 217.002 92.9283C218.977 94.3538 220.436 96.2244 219.588 98.8694C219.475 99.2216 219.397 99.5782 219.312 99.9423C217.807 106.593 217.406 113.317 217.92 120.106C218.022 121.305 218.049 122.517 218.137 124.384ZM199.324 263.172C199.907 263.164 200.587 262.952 201.049 263.184C202.456 263.88 203.931 264.564 205.104 265.578C209.001 268.945 211.336 273.375 213.045 278.175C213.536 279.549 213.173 280.754 212.312 281.807C211.946 281.75 211.683 281.763 211.481 281.658C205.745 278.814 201.94 274.156 199.462 268.34C198.798 266.782 198.606 265.028 199.324 263.172ZM306.141 301.387C308.833 301.791 309.86 303.28 309.964 305.728C310.136 309.946 309.038 313.732 306.526 317.09C305.786 318.085 304.886 318.888 303.67 319.273C302.658 319.594 301.688 319.076 301.417 318.037C301.037 316.556 301.187 315.107 301.653 313.683C302.533 311.008 303.399 308.326 304.344 305.674C304.875 304.203 305.555 302.778 306.141 301.387ZM303.914 56.6202C305.273 54.3023 305.446 51.7494 307.122 49.7799C309.43 50.1562 311.452 50.8133 312.957 52.9332C312.652 54.1766 312.43 55.5052 311.995 56.7654C311.503 58.1982 310.713 58.6145 309.144 58.4501C307.435 58.2749 305.785 57.8569 303.914 56.6202Z" fill="#703F59"/>
<path fill-rule="evenodd" clip-rule="evenodd" d="M270.752 143.612C270.732 142.386 270.814 141.138 270.635 139.937C270.566 139.465 269.958 138.949 269.467 138.704C268.925 138.429 267.935 139.134 267.841 139.843C267.39 143.265 267.033 146.723 268.258 150.056C270.142 155.165 275.977 157.953 281.101 156.267C286.565 154.472 289.457 150.314 289.222 144.564C289.2 144.075 289.129 143.582 289.01 143.106C288.785 142.225 287.866 141.626 287.08 141.811C286.226 142.015 285.969 142.679 285.901 143.463C285.772 144.918 285.841 146.422 285.492 147.823C284.582 151.518 280.592 154.074 276.848 153.531C274.417 153.178 271.48 150.484 271.041 148.018C270.79 146.577 270.798 145.082 270.69 143.61C270.718 143.615 270.738 143.613 270.752 143.612Z" fill="#703F59"/>
<path fill-rule="evenodd" clip-rule="evenodd" d="M302.643 134.427C302.876 137.314 305.535 139.545 308.443 139.287C311.06 139.051 313.053 136.664 312.876 133.969C312.687 131.12 310.354 129.265 307.294 129.528C304.124 129.805 302.414 131.602 302.643 134.427Z" fill="#703F59"/>
<path fill-rule="evenodd" clip-rule="evenodd" d="M248.932 122.426C249.363 126.008 253.649 128.251 256.733 126.506C258.541 125.481 259.427 123.072 258.731 121.068C257.743 118.222 253.894 116.55 251.184 117.782C249.603 118.496 248.692 120.381 248.932 122.426Z" fill="#703F59"/>
<path d="M277.436 368.621C322.834 368.621 359.636 360.099 359.636 349.587C359.636 339.075 322.834 330.553 277.436 330.553C232.039 330.553 195.237 339.075 195.237 349.587C195.237 360.099 232.039 368.621 277.436 368.621Z" fill="#12AFCB"/>
<path fill-rule="evenodd" clip-rule="evenodd" d="M353.425 650.875C351.858 653.831 351.487 656.486 351.649 659.239C351.936 664.025 353.527 665.923 358.294 666.95C363.347 668.036 368.425 668.982 373.477 670.028C379.359 671.24 385.233 672.503 391.096 673.736C392.379 671.848 393.382 670.07 394.698 668.547C396.23 666.748 397.838 664.898 399.759 663.54C405.14 659.747 410.651 659.975 416.053 663.807C418.955 665.863 420.911 668.598 422.257 671.782C422.719 672.872 422.978 674.029 423.392 675.388C424.359 675.53 425.351 675.839 426.321 675.792C434.937 675.369 443.554 674.946 452.156 674.385C454.377 674.242 456.595 673.753 458.774 673.246C460.592 672.821 462.457 672.326 463.916 670.689C464.29 667.846 462.955 665.196 462.494 662.573C461.141 661.279 459.722 661.896 458.4 661.966C454.16 662.165 450.171 661.474 446.57 659.088C440.847 655.298 439.309 647.751 443.237 642.104C445.713 638.54 448.941 636.213 453.615 636.601C454.432 636.669 455.271 636.548 456.094 636.517C455.999 632.407 452.62 618.144 449.726 609.481C448.529 609.21 447.203 608.894 445.887 608.597C442.839 607.901 439.918 606.903 437.359 605.091C434.084 602.781 432.244 599.755 432.198 595.643C432.14 590.69 433.157 586.132 436.92 582.618C438.379 581.248 440.217 580.289 442.158 578.96C441.878 574.619 440.823 570.277 438.828 566.001C434.696 565.662 430.814 566.53 426.75 566.713C425.896 568.011 425.081 569.288 424.215 570.527C422.939 572.355 421.511 574.03 419.493 575.155C415.544 577.351 411.436 577.149 407.9 574.404C405.566 572.593 403.669 570.41 402.738 567.557C402.428 566.61 402.05 565.674 401.722 564.767C397.884 563.398 394.196 562.093 390.358 560.725C388.538 563.216 388.127 566.109 386.484 568.614C387.67 569.37 388.523 569.882 389.339 570.455C392.723 572.81 394.856 576.072 395.981 579.907C398.152 587.321 393.113 595.798 385.541 597.913C382.725 598.701 380.07 598.248 377.42 597.428C376.13 597.031 374.928 596.374 373.452 595.727C370.657 600.194 369.4 605.147 367.565 609.834C365.712 614.582 364.008 619.393 362.156 624.417C362.854 624.717 363.407 625.082 364 625.189C370.38 626.343 373.081 630.899 374.515 636.433C375.626 640.703 374.583 644.55 371.023 647.453C369.433 648.749 367.825 650.075 366.037 651.063C362.732 652.898 359.229 653.405 355.628 651.8C355.019 651.537 354.402 651.293 353.425 650.875ZM394.148 624.232C393.879 617.586 397.138 612.123 402.813 609.121C407.641 606.556 413.162 607.544 417.022 611.355C422.248 616.519 422.158 626.956 419.153 631.331C417.237 634.113 415.005 636.343 411.397 636.657C405.912 637.14 401.21 635.468 397.393 631.517C395.28 629.332 394.318 626.668 394.148 624.232Z" fill="#6CDCF2"/>
<path fill-rule="evenodd" clip-rule="evenodd" d="M435.782 479.64C428.5 477.194 421.45 473.345 412.993 475.424C412.235 477.431 411.571 479.344 410.797 481.213C409.617 484.027 408.458 486.869 407.099 489.61C405.576 492.694 403.439 495.345 400.542 497.343C398.992 498.41 397.434 499.498 395.957 500.651C385.223 508.987 367.551 507.268 357.28 498.101C355.515 496.526 354.087 494.562 352.5 492.763C351.223 492.989 351.613 493.963 351.67 494.713C352.33 502.916 354.301 510.744 358.099 518.127C362.785 527.237 367.882 536.025 375.136 543.486C385.858 554.515 398.926 560.589 414.353 561.789C431.756 563.132 448.298 559.799 464.15 552.715C475.206 547.769 485.483 541.637 494.829 533.976C505.993 524.834 513.697 513.388 518.592 500.021C518.814 499.409 518.818 498.727 518.956 497.96C515.519 497.081 512.211 496.236 508.567 495.305C508.183 496.051 507.664 496.872 507.315 497.755C502.805 509.1 494.553 516.907 483.617 522.195C459.15 531.047 439.565 514.932 436.724 496.684C435.936 491.62 435.239 486.613 436.038 481.499C436.089 481.023 435.903 480.505 435.782 479.64ZM407.372 507.649C408.909 507.818 411.461 508.118 414.021 508.387C420.168 509.056 426.297 509.804 432.456 510.294C434.208 510.436 435.365 510.966 436.224 512.407C437.114 513.907 437.692 515.467 437.581 517.212C437.253 522.337 436.25 527.271 433.475 531.736C430.569 536.405 426.515 538.951 420.859 539.332C412.719 539.885 405.867 537.671 403.623 527.243C402.661 522.769 401.845 518.28 400.913 513.806C399.871 508.771 400.573 507.875 405.815 507.707C405.981 507.701 406.158 507.694 407.372 507.649Z" fill="#FFEFF4"/>
<path fill-rule="evenodd" clip-rule="evenodd" d="M351.089 455.593C346.699 461.217 347.064 467.295 348.341 473.626C350.723 485.374 358.327 493.01 368.416 498.643C371.391 500.301 374.72 501.185 378.297 501.09C384.53 500.924 390.169 499.318 394.96 495.241C395.483 494.796 395.975 494.293 396.56 493.954C400.845 491.538 403.099 487.557 404.872 483.287C406.762 478.736 408.363 474.097 409.211 469.219C410.089 464.112 409.765 459.12 408.411 454.137C407.534 450.897 405.769 448.283 403.284 446.102C400.14 443.343 396.398 441.664 392.447 440.398C390.838 439.885 389.389 440.207 388.24 441.506C387.111 442.785 385.831 443.96 384.862 445.342C379.929 452.43 372.667 454.978 364.435 455.456C360.138 455.707 355.836 455.562 351.089 455.593ZM376.562 468.638C376.454 467.307 376.929 465.578 377.986 463.946C379.794 461.148 382.425 460.426 385.554 460.941C388.041 461.342 389.41 463.061 389.939 466.453C390.094 467.446 390.163 468.482 390.033 469.466C389.549 473.064 386.597 475.42 382.865 475.313C379.379 475.207 376.823 472.712 376.562 468.638Z" fill="#FFEFF4"/>
<path fill-rule="evenodd" clip-rule="evenodd" d="M468.175 454.766C466.192 454.455 464.605 455.048 462.966 455.555C452.25 458.856 439.489 472.776 440.547 487.937C440.759 490.975 441.157 494.016 441.691 497.012C443.956 509.556 456.747 522.376 475.294 519.433C479.614 518.747 483.59 517.242 487.205 514.772C492.227 511.329 496.444 507.116 499.817 502.113C502.159 498.633 502.692 496.872 502.935 492.878C500.408 491.41 497.742 489.908 495.113 488.336C486.083 482.95 478.869 475.784 473.675 466.733C472.154 464.09 470.978 461.247 469.687 458.477C469.123 457.282 468.683 456.022 468.175 454.766ZM456.872 486.423C456.735 482.749 460.527 478.7 464.192 478.601C468.22 478.499 472.333 482.508 472.571 486.771C472.783 490.601 469.341 493.766 464.813 493.887C460.276 494.018 457.043 490.985 456.872 486.423Z" fill="#FFEFF4"/>
<path fill-rule="evenodd" clip-rule="evenodd" d="M466.482 438.352C464.849 437.959 463.354 437.61 461.859 437.241C454.987 435.512 449.858 431.63 446.391 425.481C443.238 419.883 441.795 413.826 440.787 407.603C440.53 405.971 440.205 404.362 439.932 402.819C438.112 402.69 438.104 404.045 437.711 404.812C435.09 410.013 431.785 414.746 428.179 419.322C422.307 426.753 414.782 431.961 406.05 435.593C404.33 436.301 402.601 436.999 400.349 437.914C401.701 438.922 402.552 439.641 403.487 440.239C409.288 443.996 412.634 449.26 413.837 455.989C414.619 460.371 414.763 464.737 414.255 469.255C418.263 469.935 422.175 470.391 425.965 471.287C429.786 472.192 433.495 473.545 437.455 474.771C443.453 462.045 452.22 452.527 466.908 449.462C466.764 445.878 466.633 442.382 466.482 438.352Z" fill="#FFEFF4"/>
<path fill-rule="evenodd" clip-rule="evenodd" d="M295.046 626.439C298.164 626.658 300.2 626.809 302.235 626.94C303.474 627.022 304.678 627.194 305.208 628.519C305.663 629.669 305.167 630.835 303.689 631.968C302.879 632.602 301.935 633.073 301.156 633.735C300.385 634.387 299.608 635.118 299.091 635.969C298.823 636.414 298.962 637.249 299.208 637.774C299.335 638.046 300.168 638.262 300.545 638.129C301.833 637.665 303.066 637.065 304.299 636.465C305.378 635.94 306.379 635.18 307.505 634.851C308.204 634.646 309.318 634.802 309.816 635.258C310.324 635.724 310.59 636.812 310.44 637.519C310.165 638.825 309.455 640.039 309.042 641.33C308.719 642.381 309.529 643.329 310.718 643.373C312.162 643.428 313.508 643.219 313.996 641.579C314.457 640.019 315.069 638.542 317.093 638.901C318.772 639.194 318.865 640.634 319.172 642.017C319.759 644.606 322.86 645.933 325.166 644.659C325.705 644.362 326.19 643.701 326.364 643.121C327.278 640.001 327.766 636.808 327.292 633.572C326.777 630.041 326.097 626.546 325.524 623.017C325.322 621.818 324.816 620.878 324.014 619.889C322.121 617.538 320.006 615.283 319.619 612.024C319.507 611.148 318.657 610.181 317.889 609.568C313.377 605.91 308.268 603.62 302.323 603.606C299.341 603.6 298.323 604.964 298.744 607.835C298.997 609.606 299.758 611.081 301.173 612.175C302.254 613.014 303.419 613.742 304.538 614.54C305.555 615.263 306.422 616.131 306.002 617.501C305.66 618.592 304.715 619.014 303.611 619.134C299.498 619.596 297.619 622.584 295.046 626.439Z" fill="#FFEFF4"/>
<path fill-rule="evenodd" clip-rule="evenodd" d="M505 531.824C507.928 533 510.541 532.852 513.072 532.836C517.396 532.802 521.658 532.117 525.787 530.795C529.625 529.562 533.043 527.575 535.789 524.663C539.619 520.592 541.71 515.925 540.222 510.235C539.616 507.943 539.32 505.532 538.415 503.37C537.65 501.54 536.389 499.827 535.038 498.325C533.012 496.077 530.263 495.755 527.414 496.436C526.646 496.623 525.823 497.168 525.336 497.78C524.502 498.83 523.722 499.997 523.258 501.241C519.271 511.864 513.839 521.632 506.052 530.054C505.741 530.402 505.554 530.894 505 531.824Z" fill="#FFEFF4"/>
<path fill-rule="evenodd" clip-rule="evenodd" d="M484.389 657.803C486.171 657.182 486.336 655.821 486.649 654.494C487.335 651.6 488.123 650.631 489.442 651.006C491.672 651.635 491.321 653.517 491.423 655.185C491.519 656.704 491.576 658.245 491.848 659.738C491.995 660.513 492.58 661.213 492.908 661.844C495.031 662.229 496.015 660.995 496.749 659.642C497.474 658.309 497.819 656.773 498.564 655.45C498.923 654.813 499.829 654.136 500.506 654.131C501.192 654.115 502.088 654.734 502.562 655.339C503.18 656.117 503.331 657.268 503.958 658.036C504.913 659.186 506.032 660.242 507.233 661.146C507.657 661.467 508.597 661.402 509.167 661.192C510.174 660.828 510.184 659.789 509.91 659.028C509.046 656.647 508.066 654.301 507.057 651.975C506.52 650.73 505.722 649.593 505.272 648.324C504.725 646.822 506.258 645.053 507.831 645.419C509.316 645.769 510.762 646.387 512.177 646.976C513.921 647.712 515.565 648.668 517.354 649.274C518.397 649.63 519.608 649.495 521.104 649.607C520.261 646.237 518.492 644.039 516.084 642.339C515.308 641.795 514.185 641.669 513.197 641.469C512.198 641.259 511.14 641.289 510.159 641.029C509.069 640.744 508.383 639.969 508.515 638.787C508.647 637.605 509.508 637.009 510.591 636.85C511.606 636.703 512.657 636.752 513.686 636.733C518.097 636.626 521.1 634.318 523.231 630.717C524.135 629.18 523.333 627.677 521.506 627.33C521.338 627.297 521.169 627.254 520.993 627.251C512.188 627.107 503.902 628.754 496.436 633.713C492.751 636.156 490.084 639.332 488.078 643.146C486.65 645.86 485.24 648.574 483.822 651.287C482.979 652.882 482.934 654.564 483.389 656.238C483.538 656.816 484.057 657.311 484.389 657.803Z" fill="#FFEFF4"/>
<path fill-rule="evenodd" clip-rule="evenodd" d="M346.903 497.572C346.449 492.526 346.05 487.626 345.543 482.739C345.421 481.577 345.005 480.426 344.6 479.304C341.943 472.006 342.022 464.685 344.238 457.303C344.579 456.192 344.838 455.006 344.825 453.859C344.794 450.409 342.98 448.598 339.48 448.403C336.59 448.235 334.053 449.112 331.899 451.052C327.96 454.592 325.986 458.979 326.26 464.21C326.531 469.342 327.619 474.296 330.289 478.814C334.207 485.47 338.992 491.442 344.521 496.851C344.888 497.203 345.349 497.463 345.79 497.723C345.89 497.778 346.093 497.682 346.903 497.572Z" fill="#FFEFF4"/>
<path fill-rule="evenodd" clip-rule="evenodd" d="M499.96 535.842C502.847 536.436 505.039 536.828 507.197 537.33C509.384 537.851 511.587 538.53 512.849 540.539C516.582 546.441 520.363 552.332 523.837 558.382C525.169 560.695 526.084 563.371 526.564 565.993C527.586 571.542 525.245 573.994 519.473 573.618C517.801 573.513 516.084 572.964 514.557 572.26C512.7 571.401 511.016 570.178 509.268 569.087C508.103 568.36 507.03 567.48 505.829 566.833C503.406 565.52 501.806 566.272 501.363 568.87C501.139 570.214 501.172 571.607 500.818 572.906C500.144 575.354 499.522 577.86 498.41 580.117C495.768 585.527 493.819 584.058 491.187 581.339C489.881 579.993 488.563 578.609 487.06 577.498C484.982 575.955 482.796 576.255 481.094 578.227C480.097 579.382 479.304 580.718 478.459 581.996C477.717 583.141 477.085 584.352 476.313 585.478C474.694 587.814 472.388 588.84 469.592 588.322C464.792 587.445 460.771 585.381 458.846 580.598C458.273 579.185 457.807 577.719 457.428 576.24C456.436 572.292 455.502 568.312 454.598 564.341C454.422 563.566 454.519 562.741 454.478 561.655C471.252 555.614 486.703 547.526 499.96 535.842Z" fill="#F3C888"/>
<path fill-rule="evenodd" clip-rule="evenodd" d="M323.944 533.615C324.065 532.127 324.388 530.553 325.055 529.232C325.968 527.427 327.047 525.597 328.476 524.198C332.744 520.022 337.164 515.989 341.656 512.032C343.555 510.359 345.73 508.961 348.629 508.061C349.904 511.188 350.908 513.899 352.095 516.515C357.267 527.852 363.455 538.547 372.346 547.558C375.446 550.705 375.56 552.441 373.304 556.126C370.152 561.278 365.555 564.784 359.787 566.603C353.853 568.468 349.709 566.508 347.476 560.846C346.415 558.176 344.737 557.132 341.97 557.364C341.119 557.436 340.246 557.429 339.39 557.363C335.583 557.071 334.077 555.1 335.113 551.59C335.496 550.31 336.177 549.097 336.809 547.897C337.441 546.696 338.272 545.587 338.845 544.368C339.681 542.586 338.653 540.815 336.715 540.661C335.514 540.558 334.304 540.732 333.104 540.648C331.57 540.548 329.989 540.489 328.521 540.069C325.199 539.106 323.676 536.958 323.944 533.615Z" fill="#F3C888"/>
<path fill-rule="evenodd" clip-rule="evenodd" d="M355.915 441.149C355.221 441.739 354.364 442.167 352.899 443.122C354.368 437.044 356.05 431.917 358.278 426.977C363.786 414.794 372.161 404.777 382.047 395.81C388.632 389.836 396.059 385.433 404.451 382.417C411.159 380.009 418.074 378.67 425.098 377.892C431.662 377.16 438.226 377.457 444.617 379.165C451.93 381.115 459.242 383.055 466.327 385.755C475.801 389.364 484.259 394.396 491.083 401.913C492.69 403.682 494.172 405.792 496.195 406.912C499.551 408.774 501.503 411.657 503.497 414.609C508.078 421.418 511.861 428.664 515.114 436.166C520.945 449.634 523.776 463.689 523.187 478.348C523 483.063 522.421 487.753 520.84 492.183C516.196 492.862 512.367 491.721 508.978 489.742C508.095 484.237 507.321 479.044 506.412 473.867C505.289 467.471 502.533 461.967 497.343 457.761C491.172 452.762 484.202 449.751 476.195 449.162C475.005 449.069 473.824 448.975 472.722 448.887C471.159 444.328 471.113 443.113 472.316 438.301C473.084 435.216 472.581 434.365 469.437 433.722C467.243 433.27 465.015 432.988 462.838 432.487C457.505 431.263 453.547 428.238 450.831 423.553C448.408 419.372 446.994 414.866 446.14 410.151C445.191 404.965 444.466 399.761 444.376 394.473C444.352 393.297 444.16 392.098 443.794 390.984C443.351 389.626 441.409 389.106 440.366 390.055C438.981 391.314 437.714 392.598 436.989 394.464C435.629 397.947 434.11 401.397 432.34 404.687C424.929 418.466 414.251 428.55 398.778 433.177C394.772 434.366 390.859 435.463 386.664 434.236C385.682 433.947 384.622 433.917 383.588 433.818C373.428 432.845 363.949 434.339 355.915 441.149Z" fill="#F3C888"/>
<path fill-rule="evenodd" clip-rule="evenodd" d="M474.075 454.366C474.384 454.236 474.699 453.986 474.993 453.995C485.195 454.264 492.936 458.996 498.928 466.831C499.434 467.484 499.739 468.314 500.043 469.103C502.146 474.691 502.758 480.572 503.742 486.943C490.171 482.351 474.538 464.891 474.075 454.366Z" fill="#F3C888"/>
<path fill-rule="evenodd" clip-rule="evenodd" d="M354.419 450.69C358.707 441.816 372.745 436.075 383.162 439.441C382.218 440.703 381.311 441.894 380.425 443.115C377.896 446.562 374.519 448.618 370.321 449.676C365.229 450.955 360.107 450.664 354.419 450.69Z" fill="#F3C888"/>
<path fill-rule="evenodd" clip-rule="evenodd" d="M411.128 741.845C419.422 744.084 430.993 741.334 436.503 736.014C436.469 734.591 435.473 733.907 434.266 733.636C429.18 732.462 424.03 732.211 418.884 733.117C416.653 733.507 414.651 734.542 413.025 736.166C411.502 737.677 410.555 739.384 411.128 741.845Z" fill="#F9BD70"/>
<path fill-rule="evenodd" clip-rule="evenodd" d="M316.324 707.149C317.435 705.891 317.5 704.751 316.918 703.616C313.957 697.883 310.546 692.453 305.673 688.067C304.18 686.719 302.602 685.434 300.05 685.648C299.804 686.686 299.32 687.654 299.404 688.57C299.564 690.226 299.854 691.936 300.461 693.485C302.714 699.176 309.718 705.183 316.324 707.149Z" fill="#F9BD70"/>
<path fill-rule="evenodd" clip-rule="evenodd" d="M449.459 587.147C449.333 586.935 449.197 586.724 449.062 586.513C449.105 586.619 449.1 586.757 449.181 586.823C449.293 586.917 449.452 586.96 449.592 587.024C449.582 587.024 449.459 587.147 449.459 587.147Z" fill="#FFEFF4"/>
<path fill-rule="evenodd" clip-rule="evenodd" d="M382.846 594.03C387.455 593.995 392.731 587.15 392.022 583.132C391.464 580.018 390.283 577.294 387.964 575.106C385.849 573.109 383.886 573.331 382.586 575.833C380.4 580.059 378.304 584.331 376.287 588.64C375.388 590.553 375.939 591.916 377.961 592.74C379.504 593.345 381.211 593.607 382.846 594.03Z" fill="#FFE7A4"/>
<path fill-rule="evenodd" clip-rule="evenodd" d="M355.068 645.721C357.316 648.385 359.898 648.971 362.936 647.59C363.862 647.17 364.775 646.661 365.628 646.105C371.479 642.294 371.938 635.958 366.747 631.208C364.096 628.776 360.597 629.392 359.29 632.725C357.614 636.961 356.137 641.27 355.068 645.721Z" fill="#FFE7A4"/>
<path fill-rule="evenodd" clip-rule="evenodd" d="M461.157 656.462C460.359 652.685 459.654 649.062 458.803 645.465C457.954 641.897 453.761 639.968 450.317 641.492C447.364 642.8 446.094 645.31 445.686 648.292C445.285 651.205 446.265 653.552 448.849 655.215C452.679 657.691 456.667 658.105 461.157 656.462Z" fill="#FFE7A4"/>
<path fill-rule="evenodd" clip-rule="evenodd" d="M397.032 674.552C404.264 675.921 411.182 676.244 418.201 675.861C417.39 670.176 413.437 665.983 408.431 665.38C407.308 665.244 406.041 665.48 404.947 665.857C401.083 667.19 399.321 669.135 397.032 674.552Z" fill="#FFE7A4"/>
<path fill-rule="evenodd" clip-rule="evenodd" d="M443.403 583.888C441.979 584.643 441 584.957 440.307 585.567C438.607 587.065 437.58 588.973 437.115 591.225C435.644 598.322 438.624 602.71 445.861 603.95C447.134 604.169 448.204 603.14 447.899 601.787C447.005 597.835 446.024 593.906 445.043 589.968C444.604 588.194 444.096 586.423 443.403 583.888Z" fill="#FFE7A4"/>
<path fill-rule="evenodd" clip-rule="evenodd" d="M407.203 565.995C408.642 569.561 410.53 571.784 413.952 572.011C415.191 572.093 416.621 571.506 417.755 570.869C419.042 570.148 420.159 569.058 420.299 567.035C415.966 566.852 411.854 566.275 407.203 565.995Z" fill="#FFE7A4"/>
<path fill-rule="evenodd" clip-rule="evenodd" d="M416.983 622.325C416.484 620.544 416.218 618.665 415.459 617.012C413.249 612.219 407.747 610.923 403.409 614.004C401.23 615.55 399.726 617.555 399.076 620.121C397.3 627.18 403.844 633.757 411.181 632.166C412.407 631.902 413.636 630.946 414.504 630.003C416.464 627.873 416.874 625.187 416.983 622.325Z" fill="#FFE7A4"/>
<path fill-rule="evenodd" clip-rule="evenodd" d="M432.503 516.781C429.493 515.243 426.698 514.745 423.746 514.49C418.953 514.077 414.204 513.267 409.424 512.665C408.438 512.534 407.44 512.582 406.094 512.544C406.104 513.601 405.998 514.416 406.154 515.182C407.022 519.501 407.851 523.821 408.884 528.104C409.834 532.004 412.473 534.09 416.568 534.48C424.956 535.292 428.175 532.441 430.792 526.35C432.074 523.404 432.879 520.268 432.503 516.781Z" fill="#F2F3F5"/>
<path fill-rule="evenodd" clip-rule="evenodd" d="M350.661 490.034C350.362 482.035 355.705 474.624 364.021 474.549C371.915 474.469 378.391 481.603 380.126 488.916C381.408 494.326 379.985 500.067 376.423 503.711C372.125 509.708 363.582 509.733 358.118 505.014C353.474 501.757 350.88 495.614 350.661 490.034Z" fill="#FEDAC6"/>
<path fill-rule="evenodd" clip-rule="evenodd" d="M466.136 506.703C470.327 498.129 479.892 496.573 487.872 500.624C495.331 504.408 498.875 512.849 497.617 520.917C496.492 528.08 490.047 531.991 483.54 532.968C478.712 533.694 472.971 531.536 469.763 527.859C469.199 527.218 468.703 526.534 468.274 525.829C464.286 520.45 463.247 512.607 466.136 506.703Z" fill="#FEDAC6"/>
<path fill-rule="evenodd" clip-rule="evenodd" d="M449.46 587.15C450.209 588.022 451.101 588.799 451.676 589.757C455.622 596.353 460.035 602.625 464.927 608.563C469.696 614.366 474.484 620.16 479.396 625.859C481.939 628.809 484.759 631.551 487.71 634.645C486.598 636.645 485.438 638.686 484.319 640.765C482.705 643.763 481.011 646.725 479.586 649.815C478.071 653.086 478.314 656.439 479.896 659.653C481.488 662.877 482.593 663.32 486.508 662.559C486.82 662.498 487.166 662.564 487.627 662.576C488.194 663.307 488.746 664.166 489.45 664.891C491.684 667.171 494.218 667.52 496.9 665.788C498.308 664.884 499.518 663.662 500.945 662.471C502.132 663.267 503.167 664.187 504.384 664.734C505.762 665.365 507.275 665.971 508.76 666.073C512.389 666.302 514.572 664.084 514.506 660.497C514.481 659.311 514.358 658.119 514.128 656.96C513.919 655.831 513.515 654.729 513.13 653.358C514.794 652.732 515.967 653.677 517.184 653.938C519.251 654.384 521.251 654.625 523.28 653.787C524.893 653.114 525.693 651.946 525.727 650.244C525.778 647.938 524.898 645.924 523.68 644.041C522.774 642.631 521.743 641.305 520.666 639.783C521.703 638.923 522.708 638.262 523.49 637.392C524.856 635.877 526.32 634.368 527.294 632.611C529.72 628.257 527.536 623.889 522.551 623.038C520.536 622.689 518.418 622.709 516.364 622.865C507.816 623.543 499.702 625.609 492.732 630.717C490.251 630.474 488.505 629.146 486.991 627.492C484.905 625.226 482.762 623.003 480.828 620.623C474.361 612.678 467.759 604.827 461.664 596.61C458.018 591.704 455.029 586.298 452.082 580.93C449.239 575.746 446.82 570.338 444.048 564.697C445.728 564.228 447.33 563.782 448.834 563.359C450.248 564.948 450.565 566.627 450.96 568.254C451.751 571.557 452.493 574.872 453.303 578.174C454.088 581.339 455.242 584.381 457.463 586.839C460.962 590.703 465.573 592.547 470.719 592.946C473.778 593.177 476.488 591.938 478.572 589.694C479.722 588.444 480.638 586.985 481.596 585.575C482.451 584.316 483.226 583.001 484.226 581.411C485.224 582.115 486.056 582.608 486.766 583.234C487.923 584.249 488.928 585.437 490.122 586.401C493.522 589.181 497.23 588.903 500.158 585.638C502.126 583.437 503.372 580.819 504.249 578.037C504.757 576.425 505.147 574.779 505.699 572.77C506.545 573.094 507.308 573.293 507.989 573.653C509.801 574.623 511.531 575.765 513.37 576.675C517.107 578.512 521.005 578.613 524.941 577.347C529.234 575.959 531.449 573.027 531.46 568.596C531.474 564.254 530.116 560.201 527.985 556.474C525.791 552.63 523.308 548.946 520.961 545.187C519.531 542.907 517.9 540.723 516.952 537.95C519.403 536.869 521.811 536.719 524.107 536.198C529.252 535.035 533.89 532.892 537.8 529.363C543.503 524.213 546.458 517.99 545.118 510.238C544.681 507.732 544.243 505.197 543.417 502.795C540.642 494.701 535.967 491.416 526.983 491.18C526.919 490.263 526.647 489.274 526.818 488.358C530.254 469.3 526.663 451.198 519.228 433.637C516.107 426.258 512.244 419.254 507.891 412.504C504.725 407.59 500.875 403.255 496.435 399.446C489.392 393.411 482.06 387.793 473.581 383.781C471.883 382.974 470.14 382.259 468.388 381.573C467.113 381.067 465.721 380.813 464.492 380.216C458.567 377.334 452.108 376.173 445.808 374.541C436.655 372.156 427.382 372.356 418.095 373.992C411.79 375.109 405.649 376.685 399.706 379.065C392.931 381.782 386.778 385.386 381.237 390.144C369.775 399.981 360.158 411.162 353.896 424.946C351.277 430.712 349.59 436.768 347.845 442.807C347.576 443.747 347.218 444.671 346.794 445.913C345.756 445.438 345.035 445.059 344.288 444.761C338.401 442.362 333.117 443.49 328.514 447.639C323.523 452.149 321.163 457.746 321.474 464.479C321.779 471.074 323.539 477.189 327.074 482.792C331.173 489.313 335.968 495.294 341.555 500.662C342.643 501.708 343.732 502.755 345.095 504.059C344.228 504.725 343.62 505.262 342.94 505.693C336.101 510.114 330.214 515.587 324.787 521.547C322.092 524.496 320.296 527.897 319.444 531.855C318.392 536.77 320.853 542.493 327.339 544.395C328.162 544.631 329.03 544.737 329.87 544.913C330.681 545.09 331.493 545.287 332.552 545.544C331.908 547.209 331.292 548.568 330.844 549.979C328.781 556.445 332.008 561.14 338.856 561.693C340.056 561.787 341.255 561.85 342.632 561.937C343.236 563.141 343.802 564.365 344.473 565.527C346.279 568.683 349.066 570.566 352.65 571.173C356.47 571.81 360.186 571.502 363.783 569.854C370.264 566.88 375.359 562.535 378.413 556.051C378.694 555.447 379.046 554.88 379.43 554.153C380.139 554.483 380.795 554.705 381.348 555.07C382.465 555.819 383.536 556.649 384.867 557.628C384.193 558.751 383.703 559.808 382.991 560.705C374.638 571.314 366.357 581.99 357.822 592.459C351.734 599.917 344.822 606.566 336.094 611.088C333.814 612.271 331.44 613.31 329.052 614.27C326.965 615.11 325.986 614.643 324.92 612.616C324.761 612.315 324.641 611.993 324.522 611.681C323.007 607.387 319.844 604.658 315.82 602.742C312.084 600.954 308.287 599.357 304.05 599.131C303.529 599.101 303.024 598.971 302.514 598.961C296.381 598.915 292.873 603.22 294.338 609.069C294.661 610.372 295.229 611.637 295.862 612.829C296.4 613.848 297.199 614.737 298.213 616.153C296.98 617.277 295.616 618.327 294.496 619.576C293.366 620.845 292.279 622.211 291.511 623.704C290.251 626.194 290.907 628.276 293.235 629.909C294.051 630.481 295.016 630.86 296.216 631.468C295.713 632.426 295.204 633.257 294.825 634.131C292.656 639.088 295.047 642.697 300.439 642.603C301.468 642.584 302.483 642.427 303.421 642.333C303.775 642.616 304.124 642.771 304.262 643.043C306.326 647.099 308.138 648.316 312.324 647.476C314.866 646.965 316.932 647.135 319.187 648.405C320.459 649.118 322.163 649.292 323.694 649.323C327.484 649.408 330.006 647.592 330.88 643.969C331.916 639.668 332.548 635.332 331.528 630.861C330.66 627.076 330.201 623.207 329.541 619.197C331.266 618.37 332.777 617.601 334.321 616.92C341.973 613.517 348.56 608.66 354.442 602.792C359.917 597.334 364.583 591.215 369.38 585.2C371.488 582.549 373.586 579.879 375.74 577.157C376.725 578.307 375.889 579.041 375.55 579.676C368.088 593.921 363.106 609.141 357.456 624.099C354.1 632.988 351.172 642.029 348.283 651.058C347.114 654.692 346.84 658.381 347.54 662.133C348.353 666.562 350.924 669.472 355.299 670.781C357.095 671.317 358.944 671.702 361.202 672.27C360.342 673.687 359.749 674.876 358.945 675.925C355.718 680.131 352.461 684.318 349.143 688.448C343.941 694.924 337.817 700.346 330.14 703.869C327.816 704.936 325.526 706.11 322.74 706.116C320.387 698.807 316.03 692.74 311.205 687.008C309.696 685.215 307.568 683.931 305.669 682.469C305.134 682.064 304.465 681.763 303.811 681.58C298.985 680.278 295.392 681.264 294.876 687.375C294.609 690.481 295.29 693.472 296.786 696.224C300.41 702.892 305.81 707.732 312.746 710.883C314.971 711.887 317.224 711.792 319.752 711.46C331.309 709.927 340.392 704.156 348.224 696.118C350.963 693.305 353.437 690.225 355.923 687.184C358.296 684.266 360.557 681.264 362.799 678.252C364.003 676.624 365.067 674.913 366.238 673.158C376.149 675.099 386.099 677.019 396.042 678.999C405.876 680.953 415.923 679.961 426.036 680.728C427.95 696.746 428.626 712.703 433.89 727.804C431.728 729.023 430.014 728.306 428.343 728.22C424.716 728.02 421.122 727.918 417.546 728.824C414.271 729.65 411.464 731.189 409.182 733.649C407.098 735.893 406.207 738.538 406.478 741.603C406.699 744.097 407.987 745.74 410.339 746.472C411.639 746.878 413.024 747.192 414.39 747.239C423.105 747.613 431.09 745.266 438.444 740.707C440.85 739.222 442.699 737.243 443.298 734.373C443.631 732.797 443.319 731.543 441.751 731.048C439.616 730.367 438.827 728.933 438.267 727.075C435.979 719.408 434.051 711.668 433.125 703.722C432.243 696.13 431.517 688.532 430.694 680.701C431.932 680.496 433.09 680.225 434.253 680.132C440.786 679.599 447.332 679.145 453.854 678.583C457.658 678.262 461.375 677.469 464.792 675.729C468.479 673.849 469.305 672.325 468.409 668.314C465.247 654.063 462.084 639.792 458.698 625.59C456.021 614.357 453.004 603.196 450.21 591.998C449.807 590.381 449.782 588.671 449.582 586.997C449.442 586.933 449.283 586.88 449.172 586.795C449.091 586.729 449.096 586.59 449.052 586.483C449.199 586.725 449.334 586.937 449.46 587.15ZM472.712 448.868C471.148 444.308 471.103 443.093 472.306 438.281C473.073 435.196 472.57 434.345 469.427 433.702C467.232 433.25 465.005 432.968 462.828 432.467C457.495 431.243 453.536 428.218 450.82 423.533C448.398 419.352 446.983 414.846 446.13 410.131C445.18 404.945 444.456 399.741 444.366 394.453C444.341 393.278 444.149 392.078 443.784 390.965C443.341 389.607 441.399 389.086 440.355 390.035C438.97 391.294 437.704 392.578 436.979 394.445C435.618 397.928 434.099 401.377 432.329 404.668C424.919 418.446 414.241 428.53 398.768 433.157C394.761 434.346 390.849 435.443 386.654 434.216C385.672 433.927 384.611 433.898 383.577 433.798C373.437 432.825 363.958 434.329 355.914 441.129C355.22 441.719 354.363 442.147 352.898 443.102C354.367 437.024 356.049 431.897 358.277 426.957C363.786 414.774 372.161 404.757 382.047 395.79C388.631 389.816 396.059 385.413 404.451 382.397C411.158 379.989 418.073 378.65 425.097 377.872C431.662 377.14 438.226 377.437 444.617 379.145C451.929 381.095 459.241 383.035 466.327 385.735C475.8 389.344 484.258 394.376 491.083 401.893C492.689 403.662 494.171 405.772 496.194 406.892C499.55 408.754 501.502 411.637 503.496 414.588C508.077 421.398 511.86 428.643 515.113 436.146C520.944 449.614 523.775 463.669 523.186 478.328C523 483.043 522.42 487.732 520.84 492.163C516.196 492.842 512.366 491.701 508.977 489.722C508.094 484.217 507.321 479.024 506.411 473.847C505.289 467.451 502.532 461.947 497.342 457.741C491.171 452.742 484.202 449.731 476.195 449.142C475.005 449.058 473.814 448.955 472.712 448.868ZM353.426 650.874C354.413 651.282 355.02 651.536 355.629 651.8C359.23 653.405 362.742 652.897 366.038 651.062C367.826 650.075 369.434 648.749 371.024 647.453C374.584 644.54 375.627 640.703 374.516 636.433C373.082 630.899 370.381 626.343 364.001 625.188C363.398 625.082 362.855 624.717 362.157 624.417C364.009 619.393 365.713 614.591 367.566 609.834C369.401 605.136 370.657 600.184 373.453 595.727C374.939 596.373 376.14 597.03 377.421 597.427C380.071 598.247 382.726 598.701 385.542 597.913C393.114 595.798 398.162 587.321 395.982 579.906C394.857 576.072 392.724 572.809 389.34 570.454C388.524 569.882 387.661 569.37 386.485 568.614C388.128 566.109 388.539 563.206 390.359 560.724C394.187 562.093 397.885 563.398 401.723 564.767C402.051 565.674 402.429 566.609 402.739 567.557C403.68 570.419 405.567 572.593 407.901 574.404C411.437 577.149 415.545 577.36 419.494 575.154C421.512 574.03 422.94 572.354 424.216 570.526C425.082 569.287 425.897 568.01 426.751 566.712C430.815 566.53 434.697 565.662 438.829 566.001C440.824 570.277 441.879 574.618 442.159 578.959C440.218 580.298 438.37 581.248 436.921 582.618C433.158 586.132 432.151 590.689 432.199 595.642C432.245 599.755 434.085 602.781 437.36 605.091C439.929 606.903 442.85 607.9 445.888 608.597C447.213 608.893 448.529 609.2 449.727 609.481C452.621 618.144 456 632.397 456.095 636.517C455.272 636.548 454.433 636.659 453.616 636.6C448.933 636.223 445.714 638.54 443.238 642.104C439.31 647.751 440.848 655.298 446.571 659.088C450.172 661.474 454.161 662.164 458.401 661.965C459.723 661.906 461.142 661.289 462.495 662.573C462.956 665.196 464.291 667.846 463.917 670.688C462.458 672.325 460.593 672.821 458.775 673.245C456.596 673.753 454.378 674.242 452.156 674.384C443.555 674.936 434.938 675.369 426.322 675.792C425.352 675.838 424.359 675.52 423.393 675.388C422.97 674.029 422.71 672.872 422.258 671.781C420.912 668.598 418.956 665.863 416.054 663.806C410.653 659.985 405.131 659.747 399.76 663.54C397.839 664.897 396.231 666.748 394.699 668.546C393.393 670.069 392.39 671.847 391.097 673.736C385.234 672.502 379.36 671.24 373.478 670.027C368.426 668.981 363.339 668.036 358.295 666.95C353.528 665.922 351.937 664.024 351.65 659.238C351.478 656.486 351.85 653.841 353.426 650.874ZM435.783 479.64C435.904 480.506 436.1 481.022 436.019 481.49C435.22 486.604 435.917 491.611 436.705 496.675C439.546 514.923 459.131 531.038 483.598 522.186C494.534 516.888 502.786 509.081 507.296 497.746C507.645 496.863 508.164 496.042 508.548 495.296C512.193 496.227 515.501 497.072 518.937 497.951C518.809 498.717 518.795 499.4 518.573 500.012C513.678 513.379 505.965 524.825 494.81 533.967C485.464 541.638 475.188 547.77 464.131 552.706C448.279 559.79 431.747 563.122 414.334 561.78C398.908 560.58 385.849 554.505 375.117 543.477C367.873 536.016 362.767 527.228 358.08 518.118C354.272 510.735 352.311 502.897 351.651 494.704C351.584 493.955 351.204 492.98 352.481 492.754C354.079 494.563 355.496 496.517 357.262 498.092C367.532 507.259 385.204 508.978 395.938 500.642C397.425 499.488 398.974 498.402 400.523 497.334C403.42 495.336 405.558 492.685 407.08 489.601C408.439 486.86 409.599 484.027 410.778 481.204C411.552 479.335 412.216 477.422 412.975 475.415C421.451 473.346 428.501 477.194 435.783 479.64ZM351.09 455.591C355.836 455.551 360.138 455.706 364.425 455.445C372.657 454.958 379.919 452.42 384.853 445.331C385.821 443.94 387.101 442.774 388.231 441.495C389.378 440.186 390.828 439.874 392.437 440.387C396.388 441.653 400.14 443.331 403.274 446.091C405.769 448.272 407.525 450.896 408.401 454.127C409.755 459.109 410.089 464.111 409.201 469.208C408.354 474.086 406.742 478.725 404.862 483.276C403.09 487.556 400.835 491.527 396.551 493.943C395.964 494.272 395.464 494.785 394.951 495.23C390.169 499.306 384.52 500.914 378.287 501.079C374.711 501.184 371.392 500.3 368.406 498.632C358.307 492.999 350.703 485.364 348.331 473.615C347.055 467.304 346.699 461.216 351.09 455.591ZM468.175 454.765C468.683 456.021 469.123 457.28 469.688 458.486C470.978 461.255 472.154 464.099 473.675 466.742C478.87 475.793 486.093 482.958 495.113 488.345C497.742 489.917 500.408 491.419 502.935 492.886C502.702 496.881 502.169 498.632 499.818 502.122C496.444 507.125 492.227 511.348 487.206 514.781C483.59 517.251 479.615 518.755 475.295 519.442C456.747 522.375 443.966 509.555 441.692 497.021C441.148 494.025 440.749 490.974 440.547 487.946C439.49 472.785 452.241 458.865 462.967 455.564C464.605 455.047 466.192 454.454 468.175 454.765ZM466.482 438.352C466.632 442.381 466.763 445.868 466.897 449.462C452.21 452.527 443.453 462.044 437.445 474.771C433.485 473.555 429.776 472.202 425.955 471.287C422.164 470.381 418.263 469.935 414.245 469.255C414.753 464.737 414.608 460.361 413.827 455.989C412.624 449.27 409.278 444.006 403.477 440.239C402.542 439.631 401.691 438.912 400.339 437.914C402.6 436.998 404.32 436.301 406.04 435.593C414.772 431.961 422.297 426.753 428.169 419.322C431.785 414.756 435.09 410.013 437.7 404.812C438.093 404.035 438.101 402.68 439.921 402.819C440.194 404.352 440.52 405.971 440.777 407.603C441.785 413.826 443.228 419.883 446.381 425.481C449.848 431.63 454.976 435.512 461.849 437.241C463.354 437.609 464.848 437.959 466.482 438.352ZM499.962 535.84C502.848 536.434 505.041 536.826 507.198 537.329C509.385 537.849 511.588 538.528 512.851 540.538C516.583 546.44 520.365 552.33 523.838 558.38C525.171 560.694 526.085 563.369 526.566 565.992C527.588 571.541 525.247 573.993 519.474 573.617C517.803 573.511 516.085 572.963 514.558 572.259C512.701 571.399 511.017 570.177 509.27 569.085C508.104 568.358 507.032 567.479 505.83 566.831C503.407 565.518 501.807 566.271 501.365 568.869C501.14 570.212 501.173 571.605 500.819 572.904C500.146 575.353 499.524 577.858 498.411 580.116C495.769 585.526 493.821 584.056 491.188 581.337C489.882 579.992 488.565 578.607 487.062 577.497C484.983 575.953 482.797 576.253 481.095 578.226C480.099 579.381 479.305 580.716 478.46 581.994C477.718 583.139 477.087 584.35 476.315 585.477C474.695 587.812 472.389 588.839 469.594 588.321C464.794 587.443 460.773 585.379 458.848 580.596C458.275 579.184 457.808 577.718 457.429 576.239C456.438 572.29 455.504 568.31 454.6 564.339C454.424 563.564 454.52 562.74 454.48 561.653C471.253 555.613 486.705 547.525 499.962 535.84ZM348.639 508.059C349.914 511.186 350.918 513.898 352.105 516.513C357.277 527.85 363.465 538.545 372.356 547.556C375.456 550.703 375.57 552.439 373.314 556.124C370.162 561.277 365.565 564.783 359.797 566.602C353.863 568.467 349.719 566.506 347.486 560.845C346.425 558.175 344.747 557.13 341.98 557.363C341.129 557.434 340.256 557.428 339.4 557.361C335.593 557.069 334.087 555.099 335.123 551.588C335.506 550.308 336.187 549.096 336.819 547.895C337.451 546.694 338.282 545.585 338.855 544.367C339.691 542.585 338.663 540.814 336.725 540.659C335.524 540.556 334.314 540.73 333.114 540.647C331.58 540.546 329.999 540.487 328.531 540.068C325.209 539.115 323.687 536.967 323.954 533.624C324.075 532.136 324.399 530.561 325.065 529.24C325.979 527.436 327.058 525.605 328.487 524.206C332.754 520.03 337.175 515.997 341.667 512.04C343.565 510.347 345.74 508.96 348.639 508.059ZM295.047 626.439C297.62 622.584 299.49 619.596 303.613 619.154C304.727 619.033 305.662 618.612 306.004 617.521C306.424 616.16 305.558 615.293 304.539 614.56C303.421 613.761 302.256 613.044 301.175 612.194C299.76 611.1 298.999 609.626 298.746 607.855C298.325 604.983 299.343 603.61 302.325 603.626C308.27 603.64 313.388 605.929 317.89 609.587C318.659 610.201 319.509 611.168 319.621 612.044C320.008 615.303 322.122 617.557 324.015 619.909C324.807 620.888 325.323 621.828 325.525 623.037C326.099 626.556 326.779 630.06 327.294 633.591C327.768 636.827 327.28 640.02 326.366 643.14C326.192 643.72 325.706 644.382 325.168 644.679C322.862 645.952 319.761 644.625 319.174 642.036C318.858 640.664 318.774 639.213 317.095 638.92C315.061 638.562 314.459 640.038 313.998 641.598C313.51 643.238 312.174 643.457 310.72 643.393C309.531 643.349 308.721 642.4 309.044 641.35C309.457 640.058 310.167 638.845 310.442 637.539C310.592 636.831 310.325 635.743 309.818 635.278C309.32 634.822 308.206 634.666 307.507 634.87C306.371 635.2 305.38 635.959 304.301 636.484C303.077 637.084 301.834 637.685 300.547 638.149C300.17 638.281 299.338 638.075 299.209 637.793C298.964 637.269 298.825 636.423 299.093 635.988C299.61 635.138 300.387 634.406 301.158 633.754C301.937 633.092 302.881 632.612 303.691 631.988C305.169 630.844 305.674 629.678 305.21 628.538C304.679 627.203 303.476 627.041 302.237 626.959C300.21 626.798 298.175 626.657 295.047 626.439ZM505.001 531.824C505.554 530.893 505.742 530.401 506.072 530.043C513.86 521.63 519.291 511.852 523.278 501.229C523.742 499.985 524.522 498.829 525.356 497.769C525.843 497.147 526.666 496.602 527.434 496.425C530.273 495.744 533.032 496.066 535.058 498.313C536.409 499.805 537.67 501.528 538.435 503.359C539.341 505.53 539.636 507.932 540.242 510.223C541.73 515.913 539.649 520.58 535.809 524.651C533.063 527.563 529.646 529.561 525.807 530.783C521.678 532.106 517.416 532.79 513.092 532.824C510.542 532.851 507.938 532.989 505.001 531.824ZM484.388 657.803C484.055 657.301 483.537 656.806 483.377 656.219C482.922 654.545 482.967 652.862 483.81 651.268C485.229 648.554 486.638 645.841 488.067 643.126C490.072 639.313 492.739 636.137 496.424 633.694C503.9 628.744 512.176 627.088 520.981 627.231C521.148 627.235 521.316 627.278 521.494 627.311C523.322 627.667 524.133 629.16 523.22 630.697C521.098 634.298 518.085 636.607 513.675 636.713C512.646 636.742 511.594 636.683 510.579 636.83C509.506 636.989 508.636 637.585 508.503 638.767C508.371 639.959 509.057 640.724 510.147 641.01C511.128 641.27 512.186 641.24 513.185 641.449C514.173 641.649 515.287 641.776 516.072 642.32C518.48 644.009 520.25 646.217 521.092 649.588C519.597 649.476 518.385 649.61 517.342 649.254C515.563 648.648 513.909 647.682 512.165 646.957C510.75 646.367 509.314 645.749 507.82 645.399C506.256 645.033 504.723 646.802 505.26 648.304C505.72 649.573 506.508 650.71 507.045 651.956C508.044 654.282 509.035 656.628 509.899 659.008C510.173 659.779 510.162 660.808 509.156 661.173C508.575 661.382 507.646 661.447 507.222 661.127C506.02 660.222 504.902 659.177 503.946 658.016C503.319 657.248 503.168 656.097 502.551 655.319C502.077 654.724 501.19 654.095 500.494 654.111C499.818 654.126 498.912 654.803 498.552 655.43C497.807 656.754 497.463 658.29 496.738 659.622C496.004 660.975 495.02 662.209 492.896 661.824C492.569 661.194 491.983 660.494 491.836 659.718C491.555 658.225 491.498 656.695 491.411 655.165C491.309 653.497 491.661 651.615 489.43 650.987C488.111 650.611 487.324 651.59 486.637 654.474C486.335 655.821 486.17 657.182 484.388 657.803ZM346.903 497.572C346.083 497.692 345.881 497.789 345.78 497.724C345.339 497.463 344.878 497.214 344.512 496.852C338.973 491.443 334.197 485.461 330.28 478.814C327.609 474.296 326.521 469.343 326.251 464.211C325.976 458.979 327.951 454.593 331.889 451.053C334.043 449.112 336.581 448.236 339.471 448.404C342.98 448.598 344.784 450.409 344.815 453.859C344.829 455.006 344.559 456.193 344.228 457.303C342.003 464.686 341.924 472.007 344.591 479.304C344.995 480.416 345.411 481.568 345.533 482.74C346.05 487.626 346.449 492.526 346.903 497.572ZM503.743 486.952C490.171 482.35 474.537 464.88 474.075 454.365C474.384 454.234 474.699 453.985 474.993 453.994C485.195 454.262 492.936 458.995 498.928 466.83C499.433 467.483 499.739 468.312 500.043 469.102C502.146 474.699 502.748 480.571 503.743 486.952ZM382.846 594.029C381.211 593.606 379.505 593.353 377.951 592.729C375.929 591.915 375.378 590.542 376.277 588.629C378.304 584.33 380.39 580.048 382.576 575.822C383.876 573.32 385.839 573.098 387.954 575.095C390.273 577.283 391.454 580.017 392.012 583.121C392.741 587.149 387.455 593.994 382.846 594.029ZM354.418 450.689C358.706 441.815 372.744 436.075 383.161 439.441C382.217 440.703 381.31 441.894 380.424 443.114C377.895 446.562 374.519 448.618 370.32 449.675C365.228 450.955 360.106 450.663 354.418 450.689ZM355.068 645.719C356.137 641.268 357.614 636.96 359.28 632.724C360.587 629.391 364.086 628.775 366.737 631.207C371.928 635.956 371.468 642.293 365.617 646.103C364.765 646.66 363.862 647.168 362.926 647.589C359.898 648.969 357.316 648.384 355.068 645.719ZM461.158 656.462C456.677 658.094 452.679 657.681 448.859 655.224C446.276 653.561 445.296 651.214 445.697 648.301C446.105 645.319 447.365 642.809 450.327 641.501C453.772 639.967 457.964 641.896 458.814 645.474C459.655 649.062 460.35 652.695 461.158 656.462ZM411.127 741.844C410.554 739.383 411.501 737.676 413.024 736.165C414.65 734.541 416.651 733.496 418.884 733.116C424.029 732.21 429.189 732.461 434.265 733.634C435.472 733.915 436.468 734.59 436.502 736.013C430.992 741.333 419.422 744.083 411.127 741.844ZM316.324 707.149C309.717 705.182 302.714 699.175 300.46 693.485C299.843 691.935 299.563 690.225 299.403 688.57C299.32 687.653 299.794 686.696 300.049 685.648C302.602 685.433 304.18 686.719 305.672 688.067C310.545 692.452 313.956 697.882 316.917 703.615C317.499 704.75 317.434 705.89 316.324 707.149ZM397.033 674.551C399.322 669.144 401.083 667.189 404.947 665.846C406.042 665.469 407.298 665.234 408.431 665.369C413.437 665.972 417.39 670.165 418.202 675.85C411.173 676.243 404.264 675.91 397.033 674.551ZM443.403 583.887C444.096 586.422 444.604 588.193 445.044 589.977C446.025 593.915 447.006 597.844 447.899 601.796C448.205 603.149 447.135 604.169 445.861 603.96C438.624 602.719 435.645 598.321 437.116 591.234C437.581 588.982 438.608 587.084 440.308 585.576C441.001 584.966 441.98 584.643 443.403 583.887ZM407.203 565.994C411.844 566.275 415.956 566.852 420.299 567.034C420.159 569.067 419.032 570.148 417.754 570.868C416.621 571.505 415.201 572.092 413.952 572.01C410.539 571.783 408.651 569.559 407.203 565.994Z" fill="#664E2B"/>
<path fill-rule="evenodd" clip-rule="evenodd" d="M394.149 624.231C394.319 626.668 395.282 629.331 397.394 631.517C401.211 635.467 405.903 637.14 411.398 636.656C415.006 636.342 417.238 634.112 419.154 631.33C422.159 626.955 422.249 616.508 417.024 611.354C413.163 607.544 407.643 606.555 402.814 609.12C397.139 612.123 393.881 617.586 394.149 624.231ZM416.983 622.324C416.884 625.185 416.474 627.861 414.504 629.992C413.627 630.935 412.397 631.891 411.181 632.155C403.854 633.756 397.3 627.169 399.076 620.11C399.726 617.544 401.23 615.539 403.409 613.993C407.737 610.923 413.24 612.219 415.459 617.001C416.218 618.664 416.485 620.552 416.983 622.324Z" fill="#664E2B"/>
<path fill-rule="evenodd" clip-rule="evenodd" d="M407.373 507.65C406.159 507.696 405.982 507.702 405.816 507.709C400.573 507.866 399.872 508.773 400.914 513.807C401.846 518.272 402.662 522.771 403.624 527.244C405.868 537.682 412.72 539.887 420.86 539.333C426.526 538.952 430.58 536.406 433.476 531.738C436.251 527.272 437.263 522.339 437.582 517.214C437.693 515.469 437.104 513.899 436.225 512.409C435.366 510.968 434.218 510.437 432.457 510.296C426.298 509.806 420.159 509.058 414.022 508.389C411.461 508.109 408.91 507.82 407.373 507.65ZM432.504 516.782C432.87 520.269 432.075 523.404 430.793 526.36C428.166 532.442 424.957 535.292 416.569 534.491C412.474 534.101 409.835 532.014 408.885 528.114C407.851 523.831 407.013 519.511 406.155 515.192C405.998 514.427 406.115 513.611 406.095 512.554C407.44 512.592 408.439 512.545 409.425 512.676C414.205 513.277 418.954 514.087 423.747 514.5C426.699 514.745 429.494 515.243 432.504 516.782Z" fill="#664E2B"/>
<path fill-rule="evenodd" clip-rule="evenodd" d="M376.562 468.636C376.823 472.711 379.378 475.206 382.864 475.302C386.596 475.419 389.549 473.053 390.032 469.455C390.162 468.471 390.093 467.425 389.939 466.442C389.42 463.049 388.041 461.341 385.554 460.93C382.425 460.425 379.804 461.147 377.985 463.935C376.928 465.567 376.454 467.305 376.562 468.636Z" fill="#664E2B"/>
<path fill-rule="evenodd" clip-rule="evenodd" d="M456.872 486.421C457.043 490.984 460.276 494.017 464.813 493.886C469.34 493.755 472.783 490.599 472.571 486.77C472.333 482.506 468.22 478.508 464.192 478.6C460.536 478.698 456.735 482.747 456.872 486.421Z" fill="#664E2B"/>
</svg>
